# Blender 5.2.2 LTS
# www.blender.org
mtllib velmobil_gym_mini.mtl
o Cube
v 11.947058 12.923931 -0.031824
v 11.947058 12.923931 5.104068
v 11.947058 12.009264 -0.031824
v 11.947058 12.009264 5.104068
v -11.968039 12.923931 -0.031824
v -11.968039 12.923931 5.104068
v -11.968039 12.009264 -0.031824
v -11.968039 12.009264 5.104068
vn 1.0000 -0.0000 -0.0000
vn -0.0000 -1.0000 -0.0000
vn -1.0000 -0.0000 -0.0000
vn -0.0000 1.0000 -0.0000
vn -0.0000 -0.0000 -1.0000
vn -0.0000 -0.0000 1.0000
vt 0.375000 0.000000
vt 0.625000 0.000000
vt 0.625000 0.250000
vt 0.375000 0.250000
vt 0.625000 0.500000
vt 0.375000 0.500000
vt 0.625000 0.750000
vt 0.375000 0.750000
vt 0.625000 1.000000
vt 0.375000 1.000000
vt 0.125000 0.500000
vt 0.125000 0.750000
vt 0.875000 0.500000
vt 0.875000 0.750000
s 0
usemtl Material.001
f 1/1/1 2/2/1 4/3/1 3/4/1
f 3/4/2 4/3/2 8/5/2 7/6/2
f 7/6/3 8/5/3 6/7/3 5/8/3
f 5/8/4 6/7/4 2/9/4 1/10/4
f 3/11/5 7/6/5 5/8/5 1/12/5
f 8/5/6 4/13/6 2/14/6 6/7/6
o Cube.001
v 11.947058 -12.133236 -0.031824
v 11.947058 -12.133236 5.104068
v 11.947058 -13.047903 -0.031824
v 11.947058 -13.047903 5.104068
v -11.968039 -12.133236 -0.031824
v -11.968039 -12.133236 5.104068
v -11.968039 -13.047903 -0.031824
v -11.968039 -13.047903 5.104068
vn 1.0000 -0.0000 -0.0000
vn -0.0000 -1.0000 -0.0000
vn -1.0000 -0.0000 -0.0000
vn -0.0000 1.0000 -0.0000
vn -0.0000 -0.0000 -1.0000
vn -0.0000 -0.0000 1.0000
vt 0.375000 0.000000
vt 0.625000 0.000000
vt 0.625000 0.250000
vt 0.375000 0.250000
vt 0.625000 0.500000
vt 0.375000 0.500000
vt 0.625000 0.750000
vt 0.375000 0.750000
vt 0.625000 1.000000
vt 0.375000 1.000000
vt 0.125000 0.500000
vt 0.125000 0.750000
vt 0.875000 0.500000
vt 0.875000 0.750000
s 0
usemtl Material.001
f 9/15/7 10/16/7 12/17/7 11/18/7
f 11/18/8 12/17/8 16/19/8 15/20/8
f 15/20/9 16/19/9 14/21/9 13/22/9
f 13/22/10 14/21/10 10/23/10 9/24/10
f 11/25/11 15/20/11 13/22/11 9/26/11
f 16/19/12 12/27/12 10/28/12 14/21/12
o Cube.002
v -11.953993 -12.040363 -0.031824
v -11.953993 -12.040363 5.104068
v -12.868660 -12.040363 -0.031824
v -12.868660 -12.040363 5.104068
v -11.953991 11.874733 -0.031824
v -11.953991 11.874733 5.104068
v -12.868658 11.874733 -0.031824
v -12.868658 11.874733 5.104068
vn -0.0000 -1.0000 -0.0000
vn -1.0000 -0.0000 -0.0000
vn -0.0000 1.0000 -0.0000
vn 1.0000 -0.0000 -0.0000
vn -0.0000 -0.0000 -1.0000
vn -0.0000 -0.0000 1.0000
vt 0.375000 0.000000
vt 0.625000 0.000000
vt 0.625000 0.250000
vt 0.375000 0.250000
vt 0.625000 0.500000
vt 0.375000 0.500000
vt 0.625000 0.750000
vt 0.375000 0.750000
vt 0.625000 1.000000
vt 0.375000 1.000000
vt 0.125000 0.500000
vt 0.125000 0.750000
vt 0.875000 0.500000
vt 0.875000 0.750000
s 0
usemtl Material.001
f 17/29/13 18/30/13 20/31/13 19/32/13
f 19/32/14 20/31/14 24/33/14 23/34/14
f 23/34/15 24/33/15 22/35/15 21/36/15
f 21/36/16 22/35/16 18/37/16 17/38/16
f 19/39/17 23/34/17 21/36/17 17/40/17
f 24/33/18 20/41/18 18/42/18 22/35/18
o Cube.003
v 12.855276 -12.040363 -0.031824
v 12.855276 -12.040363 5.104068
v 11.940609 -12.040363 -0.031824
v 11.940609 -12.040363 5.104068
v 12.855278 11.874733 -0.031824
v 12.855278 11.874733 5.104068
v 11.940611 11.874733 -0.031824
v 11.940611 11.874733 5.104068
vn -0.0000 -1.0000 -0.0000
vn -1.0000 -0.0000 -0.0000
vn -0.0000 1.0000 -0.0000
vn 1.0000 -0.0000 -0.0000
vn -0.0000 -0.0000 -1.0000
vn -0.0000 -0.0000 1.0000
vt 0.375000 0.000000
vt 0.625000 0.000000
vt 0.625000 0.250000
vt 0.375000 0.250000
vt 0.625000 0.500000
vt 0.375000 0.500000
vt 0.625000 0.750000
vt 0.375000 0.750000
vt 0.625000 1.000000
vt 0.375000 1.000000
vt 0.125000 0.500000
vt 0.125000 0.750000
vt 0.875000 0.500000
vt 0.875000 0.750000
s 0
usemtl Material.001
f 25/43/19 26/44/19 28/45/19 27/46/19
f 27/46/20 28/45/20 32/47/20 31/48/20
f 31/48/21 32/47/21 30/49/21 29/50/21
f 29/50/22 30/49/22 26/51/22 25/52/22
f 27/53/23 31/48/23 29/50/23 25/54/23
f 32/47/24 28/55/24 26/56/24 30/49/24
o Cylinder
v 12.238526 -13.700976 -0.034228
v 12.238526 -13.700976 5.165772
v 12.043436 -13.681762 -0.034228
v 12.043436 -13.681762 5.165772
v 11.855843 -13.624856 -0.034228
v 11.855843 -13.624856 5.165772
v 11.682956 -13.532446 -0.034228
v 11.682956 -13.532446 5.165772
v 11.531420 -13.408083 -0.034228
v 11.531420 -13.408083 5.165772
v 11.407057 -13.256547 -0.034228
v 11.407057 -13.256547 5.165772
v 11.314647 -13.083660 -0.034228
v 11.314647 -13.083660 5.165772
v 11.257741 -12.896067 -0.034228
v 11.257741 -12.896067 5.165772
v 11.238526 -12.700976 -0.034228
v 11.238526 -12.700976 5.165772
v 11.257741 -12.505886 -0.034228
v 11.257741 -12.505886 5.165772
v 11.314647 -12.318293 -0.034228
v 11.314647 -12.318293 5.165772
v 11.407057 -12.145406 -0.034228
v 11.407057 -12.145406 5.165772
v 11.531420 -11.993870 -0.034228
v 11.531420 -11.993870 5.165772
v 11.682956 -11.869507 -0.034228
v 11.682956 -11.869507 5.165772
v 11.855843 -11.777097 -0.034228
v 11.855843 -11.777097 5.165772
v 12.043436 -11.720191 -0.034228
v 12.043436 -11.720191 5.165772
v 12.238526 -11.700976 -0.034228
v 12.238526 -11.700976 5.165772
v 12.433617 -11.720191 -0.034228
v 12.433617 -11.720191 5.165772
v 12.621210 -11.777097 -0.034228
v 12.621210 -11.777097 5.165772
v 12.794097 -11.869507 -0.034228
v 12.794097 -11.869507 5.165772
v 12.945633 -11.993870 -0.034228
v 12.945633 -11.993870 5.165772
v 13.069996 -12.145406 -0.034228
v 13.069996 -12.145406 5.165772
v 13.162406 -12.318293 -0.034228
v 13.162406 -12.318293 5.165772
v 13.219312 -12.505886 -0.034228
v 13.219312 -12.505886 5.165772
v 13.238526 -12.700976 -0.034228
v 13.238526 -12.700976 5.165772
v 13.219312 -12.896067 -0.034228
v 13.219312 -12.896067 5.165772
v 13.162406 -13.083660 -0.034228
v 13.162406 -13.083660 5.165772
v 13.069996 -13.256547 -0.034228
v 13.069996 -13.256547 5.165772
v 12.945633 -13.408083 -0.034228
v 12.945633 -13.408083 5.165772
v 12.794097 -13.532446 -0.034228
v 12.794097 -13.532446 5.165772
v 12.621210 -13.624856 -0.034228
v 12.621210 -13.624856 5.165772
v 12.433617 -13.681762 -0.034228
v 12.433617 -13.681762 5.165772
vn -0.0980 -0.9952 -0.0000
vn -0.2903 -0.9569 -0.0000
vn -0.4714 -0.8819 -0.0000
vn -0.6344 -0.7730 -0.0000
vn -0.7730 -0.6344 -0.0000
vn -0.8819 -0.4714 -0.0000
vn -0.9569 -0.2903 -0.0000
vn -0.9952 -0.0980 -0.0000
vn -0.9952 0.0980 -0.0000
vn -0.9569 0.2903 -0.0000
vn -0.8819 0.4714 -0.0000
vn -0.7730 0.6344 -0.0000
vn -0.6344 0.7730 -0.0000
vn -0.4714 0.8819 -0.0000
vn -0.2903 0.9569 -0.0000
vn -0.0980 0.9952 -0.0000
vn 0.0980 0.9952 -0.0000
vn 0.2903 0.9569 -0.0000
vn 0.4714 0.8819 -0.0000
vn 0.6344 0.7730 -0.0000
vn 0.7730 0.6344 -0.0000
vn 0.8819 0.4714 -0.0000
vn 0.9569 0.2903 -0.0000
vn 0.9952 0.0980 -0.0000
vn 0.9952 -0.0980 -0.0000
vn 0.9569 -0.2903 -0.0000
vn 0.8819 -0.4714 -0.0000
vn 0.7730 -0.6344 -0.0000
vn 0.6344 -0.7730 -0.0000
vn 0.4714 -0.8819 -0.0000
vn -0.0000 -0.0000 1.0000
vn 0.2903 -0.9569 -0.0000
vn 0.0980 -0.9952 -0.0000
vn -0.0000 -0.0000 -1.0000
vt 1.000000 0.500000
vt 1.000000 1.000000
vt 0.968750 1.000000
vt 0.968750 0.500000
vt 0.937500 1.000000
vt 0.937500 0.500000
vt 0.906250 1.000000
vt 0.906250 0.500000
vt 0.875000 1.000000
vt 0.875000 0.500000
vt 0.843750 1.000000
vt 0.843750 0.500000
vt 0.812500 1.000000
vt 0.812500 0.500000
vt 0.781250 1.000000
vt 0.781250 0.500000
vt 0.750000 1.000000
vt 0.750000 0.500000
vt 0.718750 1.000000
vt 0.718750 0.500000
vt 0.687500 1.000000
vt 0.687500 0.500000
vt 0.656250 1.000000
vt 0.656250 0.500000
vt 0.625000 1.000000
vt 0.625000 0.500000
vt 0.593750 1.000000
vt 0.593750 0.500000
vt 0.562500 1.000000
vt 0.562500 0.500000
vt 0.531250 1.000000
vt 0.531250 0.500000
vt 0.500000 1.000000
vt 0.500000 0.500000
vt 0.468750 1.000000
vt 0.468750 0.500000
vt 0.437500 1.000000
vt 0.437500 0.500000
vt 0.406250 1.000000
vt 0.406250 0.500000
vt 0.375000 1.000000
vt 0.375000 0.500000
vt 0.343750 1.000000
vt 0.343750 0.500000
vt 0.312500 1.000000
vt 0.312500 0.500000
vt 0.281250 1.000000
vt 0.281250 0.500000
vt 0.250000 1.000000
vt 0.250000 0.500000
vt 0.218750 1.000000
vt 0.218750 0.500000
vt 0.187500 1.000000
vt 0.187500 0.500000
vt 0.156250 1.000000
vt 0.156250 0.500000
vt 0.125000 1.000000
vt 0.125000 0.500000
vt 0.093750 1.000000
vt 0.093750 0.500000
vt 0.062500 1.000000
vt 0.062500 0.500000
vt 0.296822 0.485388
vt 0.250000 0.490000
vt 0.203178 0.485388
vt 0.158156 0.471731
vt 0.116663 0.449553
vt 0.080294 0.419706
vt 0.050447 0.383337
vt 0.028269 0.341844
vt 0.014612 0.296822
vt 0.010000 0.250000
vt 0.014612 0.203178
vt 0.028269 0.158156
vt 0.050447 0.116663
vt 0.080294 0.080294
vt 0.116663 0.050447
vt 0.158156 0.028269
vt 0.203178 0.014612
vt 0.250000 0.010000
vt 0.296822 0.014612
vt 0.341844 0.028269
vt 0.383337 0.050447
vt 0.419706 0.080294
vt 0.449553 0.116663
vt 0.471731 0.158156
vt 0.485388 0.203178
vt 0.490000 0.250000
vt 0.485388 0.296822
vt 0.471731 0.341844
vt 0.449553 0.383337
vt 0.419706 0.419706
vt 0.383337 0.449553
vt 0.341844 0.471731
vt 0.031250 1.000000
vt 0.031250 0.500000
vt 0.000000 1.000000
vt 0.000000 0.500000
vt 0.750000 0.490000
vt 0.796822 0.485388
vt 0.841844 0.471731
vt 0.883337 0.449553
vt 0.919706 0.419706
vt 0.949553 0.383337
vt 0.971731 0.341844
vt 0.985388 0.296822
vt 0.990000 0.250000
vt 0.985388 0.203178
vt 0.971731 0.158156
vt 0.949553 0.116663
vt 0.919706 0.080294
vt 0.883337 0.050447
vt 0.841844 0.028269
vt 0.796822 0.014612
vt 0.750000 0.010000
vt 0.703178 0.014612
vt 0.658156 0.028269
vt 0.616663 0.050447
vt 0.580294 0.080294
vt 0.550447 0.116663
vt 0.528269 0.158156
vt 0.514612 0.203178
vt 0.510000 0.250000
vt 0.514612 0.296822
vt 0.528269 0.341844
vt 0.550447 0.383337
vt 0.580294 0.419706
vt 0.616663 0.449553
vt 0.658156 0.471731
vt 0.703178 0.485388
s 0
usemtl Material.003
f 33/57/25 34/58/25 36/59/25 35/60/25
f 35/60/26 36/59/26 38/61/26 37/62/26
f 37/62/27 38/61/27 40/63/27 39/64/27
f 39/64/28 40/63/28 42/65/28 41/66/28
f 41/66/29 42/65/29 44/67/29 43/68/29
f 43/68/30 44/67/30 46/69/30 45/70/30
f 45/70/31 46/69/31 48/71/31 47/72/31
f 47/72/32 48/71/32 50/73/32 49/74/32
f 49/74/33 50/73/33 52/75/33 51/76/33
f 51/76/34 52/75/34 54/77/34 53/78/34
f 53/78/35 54/77/35 56/79/35 55/80/35
f 55/80/36 56/79/36 58/81/36 57/82/36
f 57/82/37 58/81/37 60/83/37 59/84/37
f 59/84/38 60/83/38 62/85/38 61/86/38
f 61/86/39 62/85/39 64/87/39 63/88/39
f 63/88/40 64/87/40 66/89/40 65/90/40
f 65/90/41 66/89/41 68/91/41 67/92/41
f 67/92/42 68/91/42 70/93/42 69/94/42
f 69/94/43 70/93/43 72/95/43 71/96/43
f 71/96/44 72/95/44 74/97/44 73/98/44
f 73/98/45 74/97/45 76/99/45 75/100/45
f 75/100/46 76/99/46 78/101/46 77/102/46
f 77/102/47 78/101/47 80/103/47 79/104/47
f 79/104/48 80/103/48 82/105/48 81/106/48
f 81/106/49 82/105/49 84/107/49 83/108/49
f 83/108/50 84/107/50 86/109/50 85/110/50
f 85/110/51 86/109/51 88/111/51 87/112/51
f 87/112/52 88/111/52 90/113/52 89/114/52
f 89/114/53 90/113/53 92/115/53 91/116/53
f 91/116/54 92/115/54 94/117/54 93/118/54
f 36/119/55 34/120/55 96/121/55 94/122/55 92/123/55 90/124/55 88/125/55 86/126/55 84/127/55 82/128/55 80/129/55 78/130/55 76/131/55 74/132/55 72/133/55 70/134/55 68/135/55 66/136/55 64/137/55 62/138/55 60/139/55 58/140/55 56/141/55 54/142/55 52/143/55 50/144/55 48/145/55 46/146/55 44/147/55 42/148/55 40/149/55 38/150/55
f 93/118/56 94/117/56 96/151/56 95/152/56
f 95/152/57 96/151/57 34/153/57 33/154/57
f 33/155/58 35/156/58 37/157/58 39/158/58 41/159/58 43/160/58 45/161/58 47/162/58 49/163/58 51/164/58 53/165/58 55/166/58 57/167/58 59/168/58 61/169/58 63/170/58 65/171/58 67/172/58 69/173/58 71/174/58 73/175/58 75/176/58 77/177/58 79/178/58 81/179/58 83/180/58 85/181/58 87/182/58 89/183/58 91/184/58 93/185/58 95/186/58
o Cylinder.001
v -12.415051 -13.700976 -0.034228
v -12.415051 -13.700976 5.165772
v -12.610141 -13.681762 -0.034228
v -12.610141 -13.681762 5.165772
v -12.797734 -13.624856 -0.034228
v -12.797734 -13.624856 5.165772
v -12.970621 -13.532446 -0.034228
v -12.970621 -13.532446 5.165772
v -13.122157 -13.408083 -0.034228
v -13.122157 -13.408083 5.165772
v -13.246520 -13.256547 -0.034228
v -13.246520 -13.256547 5.165772
v -13.338930 -13.083660 -0.034228
v -13.338930 -13.083660 5.165772
v -13.395836 -12.896067 -0.034228
v -13.395836 -12.896067 5.165772
v -13.415051 -12.700976 -0.034228
v -13.415051 -12.700976 5.165772
v -13.395836 -12.505886 -0.034228
v -13.395836 -12.505886 5.165772
v -13.338930 -12.318293 -0.034228
v -13.338930 -12.318293 5.165772
v -13.246520 -12.145406 -0.034228
v -13.246520 -12.145406 5.165772
v -13.122157 -11.993870 -0.034228
v -13.122157 -11.993870 5.165772
v -12.970621 -11.869507 -0.034228
v -12.970621 -11.869507 5.165772
v -12.797734 -11.777097 -0.034228
v -12.797734 -11.777097 5.165772
v -12.610141 -11.720191 -0.034228
v -12.610141 -11.720191 5.165772
v -12.415051 -11.700976 -0.034228
v -12.415051 -11.700976 5.165772
v -12.219960 -11.720191 -0.034228
v -12.219960 -11.720191 5.165772
v -12.032367 -11.777097 -0.034228
v -12.032367 -11.777097 5.165772
v -11.859480 -11.869507 -0.034228
v -11.859480 -11.869507 5.165772
v -11.707944 -11.993870 -0.034228
v -11.707944 -11.993870 5.165772
v -11.583581 -12.145406 -0.034228
v -11.583581 -12.145406 5.165772
v -11.491171 -12.318293 -0.034228
v -11.491171 -12.318293 5.165772
v -11.434265 -12.505886 -0.034228
v -11.434265 -12.505886 5.165772
v -11.415051 -12.700976 -0.034228
v -11.415051 -12.700976 5.165772
v -11.434265 -12.896067 -0.034228
v -11.434265 -12.896067 5.165772
v -11.491171 -13.083660 -0.034228
v -11.491171 -13.083660 5.165772
v -11.583581 -13.256547 -0.034228
v -11.583581 -13.256547 5.165772
v -11.707944 -13.408083 -0.034228
v -11.707944 -13.408083 5.165772
v -11.859480 -13.532446 -0.034228
v -11.859480 -13.532446 5.165772
v -12.032367 -13.624856 -0.034228
v -12.032367 -13.624856 5.165772
v -12.219960 -13.681762 -0.034228
v -12.219960 -13.681762 5.165772
vn -0.0980 -0.9952 -0.0000
vn -0.2903 -0.9569 -0.0000
vn -0.4714 -0.8819 -0.0000
vn -0.6344 -0.7730 -0.0000
vn -0.7730 -0.6344 -0.0000
vn -0.8819 -0.4714 -0.0000
vn -0.9569 -0.2903 -0.0000
vn -0.9952 -0.0980 -0.0000
vn -0.9952 0.0980 -0.0000
vn -0.9569 0.2903 -0.0000
vn -0.8819 0.4714 -0.0000
vn -0.7730 0.6344 -0.0000
vn -0.6344 0.7730 -0.0000
vn -0.4714 0.8819 -0.0000
vn -0.2903 0.9569 -0.0000
vn -0.0980 0.9952 -0.0000
vn 0.0980 0.9952 -0.0000
vn 0.2903 0.9569 -0.0000
vn 0.4714 0.8819 -0.0000
vn 0.6344 0.7730 -0.0000
vn 0.7730 0.6344 -0.0000
vn 0.8819 0.4714 -0.0000
vn 0.9569 0.2903 -0.0000
vn 0.9952 0.0980 -0.0000
vn 0.9952 -0.0980 -0.0000
vn 0.9569 -0.2903 -0.0000
vn 0.8819 -0.4714 -0.0000
vn 0.7730 -0.6344 -0.0000
vn 0.6344 -0.7730 -0.0000
vn 0.4714 -0.8819 -0.0000
vn -0.0000 -0.0000 1.0000
vn 0.2903 -0.9569 -0.0000
vn 0.0980 -0.9952 -0.0000
vn -0.0000 -0.0000 -1.0000
vt 1.000000 0.500000
vt 1.000000 1.000000
vt 0.968750 1.000000
vt 0.968750 0.500000
vt 0.937500 1.000000
vt 0.937500 0.500000
vt 0.906250 1.000000
vt 0.906250 0.500000
vt 0.875000 1.000000
vt 0.875000 0.500000
vt 0.843750 1.000000
vt 0.843750 0.500000
vt 0.812500 1.000000
vt 0.812500 0.500000
vt 0.781250 1.000000
vt 0.781250 0.500000
vt 0.750000 1.000000
vt 0.750000 0.500000
vt 0.718750 1.000000
vt 0.718750 0.500000
vt 0.687500 1.000000
vt 0.687500 0.500000
vt 0.656250 1.000000
vt 0.656250 0.500000
vt 0.625000 1.000000
vt 0.625000 0.500000
vt 0.593750 1.000000
vt 0.593750 0.500000
vt 0.562500 1.000000
vt 0.562500 0.500000
vt 0.531250 1.000000
vt 0.531250 0.500000
vt 0.500000 1.000000
vt 0.500000 0.500000
vt 0.468750 1.000000
vt 0.468750 0.500000
vt 0.437500 1.000000
vt 0.437500 0.500000
vt 0.406250 1.000000
vt 0.406250 0.500000
vt 0.375000 1.000000
vt 0.375000 0.500000
vt 0.343750 1.000000
vt 0.343750 0.500000
vt 0.312500 1.000000
vt 0.312500 0.500000
vt 0.281250 1.000000
vt 0.281250 0.500000
vt 0.250000 1.000000
vt 0.250000 0.500000
vt 0.218750 1.000000
vt 0.218750 0.500000
vt 0.187500 1.000000
vt 0.187500 0.500000
vt 0.156250 1.000000
vt 0.156250 0.500000
vt 0.125000 1.000000
vt 0.125000 0.500000
vt 0.093750 1.000000
vt 0.093750 0.500000
vt 0.062500 1.000000
vt 0.062500 0.500000
vt 0.296822 0.485388
vt 0.250000 0.490000
vt 0.203178 0.485388
vt 0.158156 0.471731
vt 0.116663 0.449553
vt 0.080294 0.419706
vt 0.050447 0.383337
vt 0.028269 0.341844
vt 0.014612 0.296822
vt 0.010000 0.250000
vt 0.014612 0.203178
vt 0.028269 0.158156
vt 0.050447 0.116663
vt 0.080294 0.080294
vt 0.116663 0.050447
vt 0.158156 0.028269
vt 0.203178 0.014612
vt 0.250000 0.010000
vt 0.296822 0.014612
vt 0.341844 0.028269
vt 0.383337 0.050447
vt 0.419706 0.080294
vt 0.449553 0.116663
vt 0.471731 0.158156
vt 0.485388 0.203178
vt 0.490000 0.250000
vt 0.485388 0.296822
vt 0.471731 0.341844
vt 0.449553 0.383337
vt 0.419706 0.419706
vt 0.383337 0.449553
vt 0.341844 0.471731
vt 0.031250 1.000000
vt 0.031250 0.500000
vt 0.000000 1.000000
vt 0.000000 0.500000
vt 0.750000 0.490000
vt 0.796822 0.485388
vt 0.841844 0.471731
vt 0.883337 0.449553
vt 0.919706 0.419706
vt 0.949553 0.383337
vt 0.971731 0.341844
vt 0.985388 0.296822
vt 0.990000 0.250000
vt 0.985388 0.203178
vt 0.971731 0.158156
vt 0.949553 0.116663
vt 0.919706 0.080294
vt 0.883337 0.050447
vt 0.841844 0.028269
vt 0.796822 0.014612
vt 0.750000 0.010000
vt 0.703178 0.014612
vt 0.658156 0.028269
vt 0.616663 0.050447
vt 0.580294 0.080294
vt 0.550447 0.116663
vt 0.528269 0.158156
vt 0.514612 0.203178
vt 0.510000 0.250000
vt 0.514612 0.296822
vt 0.528269 0.341844
vt 0.550447 0.383337
vt 0.580294 0.419706
vt 0.616663 0.449553
vt 0.658156 0.471731
vt 0.703178 0.485388
s 0
usemtl Material.003
f 97/187/59 98/188/59 100/189/59 99/190/59
f 99/190/60 100/189/60 102/191/60 101/192/60
f 101/192/61 102/191/61 104/193/61 103/194/61
f 103/194/62 104/193/62 106/195/62 105/196/62
f 105/196/63 106/195/63 108/197/63 107/198/63
f 107/198/64 108/197/64 110/199/64 109/200/64
f 109/200/65 110/199/65 112/201/65 111/202/65
f 111/202/66 112/201/66 114/203/66 113/204/66
f 113/204/67 114/203/67 116/205/67 115/206/67
f 115/206/68 116/205/68 118/207/68 117/208/68
f 117/208/69 118/207/69 120/209/69 119/210/69
f 119/210/70 120/209/70 122/211/70 121/212/70
f 121/212/71 122/211/71 124/213/71 123/214/71
f 123/214/72 124/213/72 126/215/72 125/216/72
f 125/216/73 126/215/73 128/217/73 127/218/73
f 127/218/74 128/217/74 130/219/74 129/220/74
f 129/220/75 130/219/75 132/221/75 131/222/75
f 131/222/76 132/221/76 134/223/76 133/224/76
f 133/224/77 134/223/77 136/225/77 135/226/77
f 135/226/78 136/225/78 138/227/78 137/228/78
f 137/228/79 138/227/79 140/229/79 139/230/79
f 139/230/80 140/229/80 142/231/80 141/232/80
f 141/232/81 142/231/81 144/233/81 143/234/81
f 143/234/82 144/233/82 146/235/82 145/236/82
f 145/236/83 146/235/83 148/237/83 147/238/83
f 147/238/84 148/237/84 150/239/84 149/240/84
f 149/240/85 150/239/85 152/241/85 151/242/85
f 151/242/86 152/241/86 154/243/86 153/244/86
f 153/244/87 154/243/87 156/245/87 155/246/87
f 155/246/88 156/245/88 158/247/88 157/248/88
f 100/249/89 98/250/89 160/251/89 158/252/89 156/253/89 154/254/89 152/255/89 150/256/89 148/257/89 146/258/89 144/259/89 142/260/89 140/261/89 138/262/89 136/263/89 134/264/89 132/265/89 130/266/89 128/267/89 126/268/89 124/269/89 122/270/89 120/271/89 118/272/89 116/273/89 114/274/89 112/275/89 110/276/89 108/277/89 106/278/89 104/279/89 102/280/89
f 157/248/90 158/247/90 160/281/90 159/282/90
f 159/282/91 160/281/91 98/283/91 97/284/91
f 97/285/92 99/286/92 101/287/92 103/288/92 105/289/92 107/290/92 109/291/92 111/292/92 113/293/92 115/294/92 117/295/92 119/296/92 121/297/92 123/298/92 125/299/92 127/300/92 129/301/92 131/302/92 133/303/92 135/304/92 137/305/92 139/306/92 141/307/92 143/308/92 145/309/92 147/310/92 149/311/92 151/312/92 153/313/92 155/314/92 157/315/92 159/316/92
o Cylinder.002
v -12.415051 11.453918 -0.034228
v -12.415051 11.453918 5.165772
v -12.610141 11.473132 -0.034228
v -12.610141 11.473132 5.165772
v -12.797734 11.530038 -0.034228
v -12.797734 11.530038 5.165772
v -12.970621 11.622448 -0.034228
v -12.970621 11.622448 5.165772
v -13.122157 11.746811 -0.034228
v -13.122157 11.746811 5.165772
v -13.246520 11.898347 -0.034228
v -13.246520 11.898347 5.165772
v -13.338930 12.071234 -0.034228
v -13.338930 12.071234 5.165772
v -13.395836 12.258827 -0.034228
v -13.395836 12.258827 5.165772
v -13.415051 12.453918 -0.034228
v -13.415051 12.453918 5.165772
v -13.395836 12.649008 -0.034228
v -13.395836 12.649008 5.165772
v -13.338930 12.836601 -0.034228
v -13.338930 12.836601 5.165772
v -13.246520 13.009488 -0.034228
v -13.246520 13.009488 5.165772
v -13.122157 13.161024 -0.034228
v -13.122157 13.161024 5.165772
v -12.970621 13.285387 -0.034228
v -12.970621 13.285387 5.165772
v -12.797734 13.377797 -0.034228
v -12.797734 13.377797 5.165772
v -12.610141 13.434703 -0.034228
v -12.610141 13.434703 5.165772
v -12.415051 13.453918 -0.034228
v -12.415051 13.453918 5.165772
v -12.219960 13.434703 -0.034228
v -12.219960 13.434703 5.165772
v -12.032367 13.377797 -0.034228
v -12.032367 13.377797 5.165772
v -11.859480 13.285387 -0.034228
v -11.859480 13.285387 5.165772
v -11.707944 13.161024 -0.034228
v -11.707944 13.161024 5.165772
v -11.583581 13.009488 -0.034228
v -11.583581 13.009488 5.165772
v -11.491171 12.836601 -0.034228
v -11.491171 12.836601 5.165772
v -11.434265 12.649008 -0.034228
v -11.434265 12.649008 5.165772
v -11.415051 12.453918 -0.034228
v -11.415051 12.453918 5.165772
v -11.434265 12.258827 -0.034228
v -11.434265 12.258827 5.165772
v -11.491171 12.071234 -0.034228
v -11.491171 12.071234 5.165772
v -11.583581 11.898347 -0.034228
v -11.583581 11.898347 5.165772
v -11.707944 11.746811 -0.034228
v -11.707944 11.746811 5.165772
v -11.859480 11.622448 -0.034228
v -11.859480 11.622448 5.165772
v -12.032367 11.530038 -0.034228
v -12.032367 11.530038 5.165772
v -12.219960 11.473132 -0.034228
v -12.219960 11.473132 5.165772
vn -0.0980 -0.9952 -0.0000
vn -0.2903 -0.9569 -0.0000
vn -0.4714 -0.8819 -0.0000
vn -0.6344 -0.7730 -0.0000
vn -0.7730 -0.6344 -0.0000
vn -0.8819 -0.4714 -0.0000
vn -0.9569 -0.2903 -0.0000
vn -0.9952 -0.0980 -0.0000
vn -0.9952 0.0980 -0.0000
vn -0.9569 0.2903 -0.0000
vn -0.8819 0.4714 -0.0000
vn -0.7730 0.6344 -0.0000
vn -0.6344 0.7730 -0.0000
vn -0.4714 0.8819 -0.0000
vn -0.2903 0.9569 -0.0000
vn -0.0980 0.9952 -0.0000
vn 0.0980 0.9952 -0.0000
vn 0.2903 0.9569 -0.0000
vn 0.4714 0.8819 -0.0000
vn 0.6344 0.7730 -0.0000
vn 0.7730 0.6344 -0.0000
vn 0.8819 0.4714 -0.0000
vn 0.9569 0.2903 -0.0000
vn 0.9952 0.0980 -0.0000
vn 0.9952 -0.0980 -0.0000
vn 0.9569 -0.2903 -0.0000
vn 0.8819 -0.4714 -0.0000
vn 0.7730 -0.6344 -0.0000
vn 0.6344 -0.7730 -0.0000
vn 0.4714 -0.8819 -0.0000
vn -0.0000 -0.0000 1.0000
vn 0.2903 -0.9569 -0.0000
vn 0.0980 -0.9952 -0.0000
vn -0.0000 -0.0000 -1.0000
vt 1.000000 0.500000
vt 1.000000 1.000000
vt 0.968750 1.000000
vt 0.968750 0.500000
vt 0.937500 1.000000
vt 0.937500 0.500000
vt 0.906250 1.000000
vt 0.906250 0.500000
vt 0.875000 1.000000
vt 0.875000 0.500000
vt 0.843750 1.000000
vt 0.843750 0.500000
vt 0.812500 1.000000
vt 0.812500 0.500000
vt 0.781250 1.000000
vt 0.781250 0.500000
vt 0.750000 1.000000
vt 0.750000 0.500000
vt 0.718750 1.000000
vt 0.718750 0.500000
vt 0.687500 1.000000
vt 0.687500 0.500000
vt 0.656250 1.000000
vt 0.656250 0.500000
vt 0.625000 1.000000
vt 0.625000 0.500000
vt 0.593750 1.000000
vt 0.593750 0.500000
vt 0.562500 1.000000
vt 0.562500 0.500000
vt 0.531250 1.000000
vt 0.531250 0.500000
vt 0.500000 1.000000
vt 0.500000 0.500000
vt 0.468750 1.000000
vt 0.468750 0.500000
vt 0.437500 1.000000
vt 0.437500 0.500000
vt 0.406250 1.000000
vt 0.406250 0.500000
vt 0.375000 1.000000
vt 0.375000 0.500000
vt 0.343750 1.000000
vt 0.343750 0.500000
vt 0.312500 1.000000
vt 0.312500 0.500000
vt 0.281250 1.000000
vt 0.281250 0.500000
vt 0.250000 1.000000
vt 0.250000 0.500000
vt 0.218750 1.000000
vt 0.218750 0.500000
vt 0.187500 1.000000
vt 0.187500 0.500000
vt 0.156250 1.000000
vt 0.156250 0.500000
vt 0.125000 1.000000
vt 0.125000 0.500000
vt 0.093750 1.000000
vt 0.093750 0.500000
vt 0.062500 1.000000
vt 0.062500 0.500000
vt 0.296822 0.485388
vt 0.250000 0.490000
vt 0.203178 0.485388
vt 0.158156 0.471731
vt 0.116663 0.449553
vt 0.080294 0.419706
vt 0.050447 0.383337
vt 0.028269 0.341844
vt 0.014612 0.296822
vt 0.010000 0.250000
vt 0.014612 0.203178
vt 0.028269 0.158156
vt 0.050447 0.116663
vt 0.080294 0.080294
vt 0.116663 0.050447
vt 0.158156 0.028269
vt 0.203178 0.014612
vt 0.250000 0.010000
vt 0.296822 0.014612
vt 0.341844 0.028269
vt 0.383337 0.050447
vt 0.419706 0.080294
vt 0.449553 0.116663
vt 0.471731 0.158156
vt 0.485388 0.203178
vt 0.490000 0.250000
vt 0.485388 0.296822
vt 0.471731 0.341844
vt 0.449553 0.383337
vt 0.419706 0.419706
vt 0.383337 0.449553
vt 0.341844 0.471731
vt 0.031250 1.000000
vt 0.031250 0.500000
vt 0.000000 1.000000
vt 0.000000 0.500000
vt 0.750000 0.490000
vt 0.796822 0.485388
vt 0.841844 0.471731
vt 0.883337 0.449553
vt 0.919706 0.419706
vt 0.949553 0.383337
vt 0.971731 0.341844
vt 0.985388 0.296822
vt 0.990000 0.250000
vt 0.985388 0.203178
vt 0.971731 0.158156
vt 0.949553 0.116663
vt 0.919706 0.080294
vt 0.883337 0.050447
vt 0.841844 0.028269
vt 0.796822 0.014612
vt 0.750000 0.010000
vt 0.703178 0.014612
vt 0.658156 0.028269
vt 0.616663 0.050447
vt 0.580294 0.080294
vt 0.550447 0.116663
vt 0.528269 0.158156
vt 0.514612 0.203178
vt 0.510000 0.250000
vt 0.514612 0.296822
vt 0.528269 0.341844
vt 0.550447 0.383337
vt 0.580294 0.419706
vt 0.616663 0.449553
vt 0.658156 0.471731
vt 0.703178 0.485388
s 0
usemtl Material.003
f 161/317/93 162/318/93 164/319/93 163/320/93
f 163/320/94 164/319/94 166/321/94 165/322/94
f 165/322/95 166/321/95 168/323/95 167/324/95
f 167/324/96 168/323/96 170/325/96 169/326/96
f 169/326/97 170/325/97 172/327/97 171/328/97
f 171/328/98 172/327/98 174/329/98 173/330/98
f 173/330/99 174/329/99 176/331/99 175/332/99
f 175/332/100 176/331/100 178/333/100 177/334/100
f 177/334/101 178/333/101 180/335/101 179/336/101
f 179/336/102 180/335/102 182/337/102 181/338/102
f 181/338/103 182/337/103 184/339/103 183/340/103
f 183/340/104 184/339/104 186/341/104 185/342/104
f 185/342/105 186/341/105 188/343/105 187/344/105
f 187/344/106 188/343/106 190/345/106 189/346/106
f 189/346/107 190/345/107 192/347/107 191/348/107
f 191/348/108 192/347/108 194/349/108 193/350/108
f 193/350/109 194/349/109 196/351/109 195/352/109
f 195/352/110 196/351/110 198/353/110 197/354/110
f 197/354/111 198/353/111 200/355/111 199/356/111
f 199/356/112 200/355/112 202/357/112 201/358/112
f 201/358/113 202/357/113 204/359/113 203/360/113
f 203/360/114 204/359/114 206/361/114 205/362/114
f 205/362/115 206/361/115 208/363/115 207/364/115
f 207/364/116 208/363/116 210/365/116 209/366/116
f 209/366/117 210/365/117 212/367/117 211/368/117
f 211/368/118 212/367/118 214/369/118 213/370/118
f 213/370/119 214/369/119 216/371/119 215/372/119
f 215/372/120 216/371/120 218/373/120 217/374/120
f 217/374/121 218/373/121 220/375/121 219/376/121
f 219/376/122 220/375/122 222/377/122 221/378/122
f 164/379/123 162/380/123 224/381/123 222/382/123 220/383/123 218/384/123 216/385/123 214/386/123 212/387/123 210/388/123 208/389/123 206/390/123 204/391/123 202/392/123 200/393/123 198/394/123 196/395/123 194/396/123 192/397/123 190/398/123 188/399/123 186/400/123 184/401/123 182/402/123 180/403/123 178/404/123 176/405/123 174/406/123 172/407/123 170/408/123 168/409/123 166/410/123
f 221/378/124 222/377/124 224/411/124 223/412/124
f 223/412/125 224/411/125 162/413/125 161/414/125
f 161/415/126 163/416/126 165/417/126 167/418/126 169/419/126 171/420/126 173/421/126 175/422/126 177/423/126 179/424/126 181/425/126 183/426/126 185/427/126 187/428/126 189/429/126 191/430/126 193/431/126 195/432/126 197/433/126 199/434/126 201/435/126 203/436/126 205/437/126 207/438/126 209/439/126 211/440/126 213/441/126 215/442/126 217/443/126 219/444/126 221/445/126 223/446/126
o Cylinder.003
v 12.418272 11.453918 -0.034228
v 12.418272 11.453918 5.165772
v 12.223182 11.473132 -0.034228
v 12.223182 11.473132 5.165772
v 12.035588 11.530038 -0.034228
v 12.035588 11.530038 5.165772
v 11.862701 11.622448 -0.034228
v 11.862701 11.622448 5.165772
v 11.711165 11.746811 -0.034228
v 11.711165 11.746811 5.165772
v 11.586802 11.898347 -0.034228
v 11.586802 11.898347 5.165772
v 11.494392 12.071234 -0.034228
v 11.494392 12.071234 5.165772
v 11.437487 12.258827 -0.034228
v 11.437487 12.258827 5.165772
v 11.418272 12.453918 -0.034228
v 11.418272 12.453918 5.165772
v 11.437487 12.649008 -0.034228
v 11.437487 12.649008 5.165772
v 11.494392 12.836601 -0.034228
v 11.494392 12.836601 5.165772
v 11.586802 13.009488 -0.034228
v 11.586802 13.009488 5.165772
v 11.711165 13.161024 -0.034228
v 11.711165 13.161024 5.165772
v 11.862701 13.285387 -0.034228
v 11.862701 13.285387 5.165772
v 12.035588 13.377797 -0.034228
v 12.035588 13.377797 5.165772
v 12.223182 13.434703 -0.034228
v 12.223182 13.434703 5.165772
v 12.418272 13.453918 -0.034228
v 12.418272 13.453918 5.165772
v 12.613362 13.434703 -0.034228
v 12.613362 13.434703 5.165772
v 12.800956 13.377797 -0.034228
v 12.800956 13.377797 5.165772
v 12.973843 13.285387 -0.034228
v 12.973843 13.285387 5.165772
v 13.125379 13.161024 -0.034228
v 13.125379 13.161024 5.165772
v 13.249742 13.009488 -0.034228
v 13.249742 13.009488 5.165772
v 13.342152 12.836601 -0.034228
v 13.342152 12.836601 5.165772
v 13.399057 12.649008 -0.034228
v 13.399057 12.649008 5.165772
v 13.418272 12.453918 -0.034228
v 13.418272 12.453918 5.165772
v 13.399057 12.258827 -0.034228
v 13.399057 12.258827 5.165772
v 13.342152 12.071234 -0.034228
v 13.342152 12.071234 5.165772
v 13.249742 11.898347 -0.034228
v 13.249742 11.898347 5.165772
v 13.125379 11.746811 -0.034228
v 13.125379 11.746811 5.165772
v 12.973843 11.622448 -0.034228
v 12.973843 11.622448 5.165772
v 12.800956 11.530038 -0.034228
v 12.800956 11.530038 5.165772
v 12.613362 11.473132 -0.034228
v 12.613362 11.473132 5.165772
vn -0.0980 -0.9952 -0.0000
vn -0.2903 -0.9569 -0.0000
vn -0.4714 -0.8819 -0.0000
vn -0.6344 -0.7730 -0.0000
vn -0.7730 -0.6344 -0.0000
vn -0.8819 -0.4714 -0.0000
vn -0.9569 -0.2903 -0.0000
vn -0.9952 -0.0980 -0.0000
vn -0.9952 0.0980 -0.0000
vn -0.9569 0.2903 -0.0000
vn -0.8819 0.4714 -0.0000
vn -0.7730 0.6344 -0.0000
vn -0.6344 0.7730 -0.0000
vn -0.4714 0.8819 -0.0000
vn -0.2903 0.9569 -0.0000
vn -0.0980 0.9952 -0.0000
vn 0.0980 0.9952 -0.0000
vn 0.2903 0.9569 -0.0000
vn 0.4714 0.8819 -0.0000
vn 0.6344 0.7730 -0.0000
vn 0.7730 0.6344 -0.0000
vn 0.8819 0.4714 -0.0000
vn 0.9569 0.2903 -0.0000
vn 0.9952 0.0980 -0.0000
vn 0.9952 -0.0980 -0.0000
vn 0.9569 -0.2903 -0.0000
vn 0.8819 -0.4714 -0.0000
vn 0.7730 -0.6344 -0.0000
vn 0.6344 -0.7730 -0.0000
vn 0.4714 -0.8819 -0.0000
vn -0.0000 -0.0000 1.0000
vn 0.2903 -0.9569 -0.0000
vn 0.0980 -0.9952 -0.0000
vn -0.0000 -0.0000 -1.0000
vt 1.000000 0.500000
vt 1.000000 1.000000
vt 0.968750 1.000000
vt 0.968750 0.500000
vt 0.937500 1.000000
vt 0.937500 0.500000
vt 0.906250 1.000000
vt 0.906250 0.500000
vt 0.875000 1.000000
vt 0.875000 0.500000
vt 0.843750 1.000000
vt 0.843750 0.500000
vt 0.812500 1.000000
vt 0.812500 0.500000
vt 0.781250 1.000000
vt 0.781250 0.500000
vt 0.750000 1.000000
vt 0.750000 0.500000
vt 0.718750 1.000000
vt 0.718750 0.500000
vt 0.687500 1.000000
vt 0.687500 0.500000
vt 0.656250 1.000000
vt 0.656250 0.500000
vt 0.625000 1.000000
vt 0.625000 0.500000
vt 0.593750 1.000000
vt 0.593750 0.500000
vt 0.562500 1.000000
vt 0.562500 0.500000
vt 0.531250 1.000000
vt 0.531250 0.500000
vt 0.500000 1.000000
vt 0.500000 0.500000
vt 0.468750 1.000000
vt 0.468750 0.500000
vt 0.437500 1.000000
vt 0.437500 0.500000
vt 0.406250 1.000000
vt 0.406250 0.500000
vt 0.375000 1.000000
vt 0.375000 0.500000
vt 0.343750 1.000000
vt 0.343750 0.500000
vt 0.312500 1.000000
vt 0.312500 0.500000
vt 0.281250 1.000000
vt 0.281250 0.500000
vt 0.250000 1.000000
vt 0.250000 0.500000
vt 0.218750 1.000000
vt 0.218750 0.500000
vt 0.187500 1.000000
vt 0.187500 0.500000
vt 0.156250 1.000000
vt 0.156250 0.500000
vt 0.125000 1.000000
vt 0.125000 0.500000
vt 0.093750 1.000000
vt 0.093750 0.500000
vt 0.062500 1.000000
vt 0.062500 0.500000
vt 0.296822 0.485388
vt 0.250000 0.490000
vt 0.203178 0.485388
vt 0.158156 0.471731
vt 0.116663 0.449553
vt 0.080294 0.419706
vt 0.050447 0.383337
vt 0.028269 0.341844
vt 0.014612 0.296822
vt 0.010000 0.250000
vt 0.014612 0.203178
vt 0.028269 0.158156
vt 0.050447 0.116663
vt 0.080294 0.080294
vt 0.116663 0.050447
vt 0.158156 0.028269
vt 0.203178 0.014612
vt 0.250000 0.010000
vt 0.296822 0.014612
vt 0.341844 0.028269
vt 0.383337 0.050447
vt 0.419706 0.080294
vt 0.449553 0.116663
vt 0.471731 0.158156
vt 0.485388 0.203178
vt 0.490000 0.250000
vt 0.485388 0.296822
vt 0.471731 0.341844
vt 0.449553 0.383337
vt 0.419706 0.419706
vt 0.383337 0.449553
vt 0.341844 0.471731
vt 0.031250 1.000000
vt 0.031250 0.500000
vt 0.000000 1.000000
vt 0.000000 0.500000
vt 0.750000 0.490000
vt 0.796822 0.485388
vt 0.841844 0.471731
vt 0.883337 0.449553
vt 0.919706 0.419706
vt 0.949553 0.383337
vt 0.971731 0.341844
vt 0.985388 0.296822
vt 0.990000 0.250000
vt 0.985388 0.203178
vt 0.971731 0.158156
vt 0.949553 0.116663
vt 0.919706 0.080294
vt 0.883337 0.050447
vt 0.841844 0.028269
vt 0.796822 0.014612
vt 0.750000 0.010000
vt 0.703178 0.014612
vt 0.658156 0.028269
vt 0.616663 0.050447
vt 0.580294 0.080294
vt 0.550447 0.116663
vt 0.528269 0.158156
vt 0.514612 0.203178
vt 0.510000 0.250000
vt 0.514612 0.296822
vt 0.528269 0.341844
vt 0.550447 0.383337
vt 0.580294 0.419706
vt 0.616663 0.449553
vt 0.658156 0.471731
vt 0.703178 0.485388
s 0
usemtl Material.003
f 225/447/127 226/448/127 228/449/127 227/450/127
f 227/450/128 228/449/128 230/451/128 229/452/128
f 229/452/129 230/451/129 232/453/129 231/454/129
f 231/454/130 232/453/130 234/455/130 233/456/130
f 233/456/131 234/455/131 236/457/131 235/458/131
f 235/458/132 236/457/132 238/459/132 237/460/132
f 237/460/133 238/459/133 240/461/133 239/462/133
f 239/462/134 240/461/134 242/463/134 241/464/134
f 241/464/135 242/463/135 244/465/135 243/466/135
f 243/466/136 244/465/136 246/467/136 245/468/136
f 245/468/137 246/467/137 248/469/137 247/470/137
f 247/470/138 248/469/138 250/471/138 249/472/138
f 249/472/139 250/471/139 252/473/139 251/474/139
f 251/474/140 252/473/140 254/475/140 253/476/140
f 253/476/141 254/475/141 256/477/141 255/478/141
f 255/478/142 256/477/142 258/479/142 257/480/142
f 257/480/143 258/479/143 260/481/143 259/482/143
f 259/482/144 260/481/144 262/483/144 261/484/144
f 261/484/145 262/483/145 264/485/145 263/486/145
f 263/486/146 264/485/146 266/487/146 265/488/146
f 265/488/147 266/487/147 268/489/147 267/490/147
f 267/490/148 268/489/148 270/491/148 269/492/148
f 269/492/149 270/491/149 272/493/149 271/494/149
f 271/494/150 272/493/150 274/495/150 273/496/150
f 273/496/151 274/495/151 276/497/151 275/498/151
f 275/498/152 276/497/152 278/499/152 277/500/152
f 277/500/153 278/499/153 280/501/153 279/502/153
f 279/502/154 280/501/154 282/503/154 281/504/154
f 281/504/155 282/503/155 284/505/155 283/506/155
f 283/506/156 284/505/156 286/507/156 285/508/156
f 228/509/157 226/510/157 288/511/157 286/512/157 284/513/157 282/514/157 280/515/157 278/516/157 276/517/157 274/518/157 272/519/157 270/520/157 268/521/157 266/522/157 264/523/157 262/524/157 260/525/157 258/526/157 256/527/157 254/528/157 252/529/157 250/530/157 248/531/157 246/532/157 244/533/157 242/534/157 240/535/157 238/536/157 236/537/157 234/538/157 232/539/157 230/540/157
f 285/508/158 286/507/158 288/541/158 287/542/158
f 287/542/159 288/541/159 226/543/159 225/544/159
f 225/545/160 227/546/160 229/547/160 231/548/160 233/549/160 235/550/160 237/551/160 239/552/160 241/553/160 243/554/160 245/555/160 247/556/160 249/557/160 251/558/160 253/559/160 255/560/160 257/561/160 259/562/160 261/563/160 263/564/160 265/565/160 267/566/160 269/567/160 271/568/160 273/569/160 275/570/160 277/571/160 279/572/160 281/573/160 283/574/160 285/575/160 287/576/160
o Icosphere
v -12.421500 12.450315 5.036628
v -13.145107 12.976041 5.589409
v -12.145112 13.300964 5.589408
v -11.527074 12.450315 5.589413
v -12.145112 11.599667 5.589408
v -13.145107 11.924590 5.589409
v -12.697888 13.300964 6.483848
v -11.697893 12.976041 6.483848
v -11.697893 11.924590 6.483848
v -12.697888 11.599667 6.483848
v -13.315927 12.450315 6.483844
v -12.421500 12.450315 7.036628
v -12.259045 12.950311 5.185974
v -12.846823 12.759327 5.185974
v -12.684369 13.259327 5.510890
v -13.272148 12.450315 5.510892
v -12.846823 12.141304 5.185974
v -11.895770 12.450315 5.185977
v -11.733311 12.950313 5.510892
v -12.259045 11.950320 5.185974
v -11.733311 11.950318 5.510892
v -12.684369 11.641304 5.510890
v -13.372558 12.759328 6.036628
v -13.372558 12.141303 6.036628
v -12.421500 13.450315 6.036628
v -13.009286 13.259333 6.036628
v -11.470443 12.759328 6.036628
v -11.833714 13.259333 6.036628
v -11.833714 11.641298 6.036628
v -11.470443 12.141303 6.036628
v -13.009286 11.641298 6.036628
v -12.421500 11.450315 6.036628
v -13.109690 12.950313 6.562365
v -12.158631 13.259327 6.562366
v -11.570852 12.450315 6.562364
v -12.158631 11.641304 6.562366
v -13.109690 11.950318 6.562365
v -12.583956 12.950311 6.887282
v -12.947230 12.450315 6.887280
v -11.996178 12.759327 6.887282
v -11.996178 12.141304 6.887282
v -12.583956 11.950320 6.887282
vn -0.1024 0.3151 -0.9435
vn -0.7002 0.2680 -0.6617
vn 0.2680 0.1947 -0.9435
vn 0.2680 -0.1947 -0.9435
vn -0.1024 -0.3151 -0.9435
vn -0.9050 0.2680 -0.3304
vn -0.0247 0.9435 -0.3304
vn 0.8897 0.3151 -0.3304
vn 0.5746 -0.7488 -0.3304
vn -0.5346 -0.7779 -0.3304
vn -0.8026 0.5831 -0.1256
vn 0.3066 0.9435 -0.1256
vn 0.9921 -0.0000 -0.1256
vn 0.3066 -0.9435 -0.1256
vn -0.8026 -0.5831 -0.1256
vn -0.4089 0.6284 0.6617
vn 0.4713 0.5831 0.6617
vn 0.7002 -0.2680 0.6617
vn -0.0385 -0.7488 0.6617
vn -0.7240 -0.1947 0.6617
vn -0.2680 -0.1947 0.9435
vn -0.4911 -0.3568 0.7947
vn -0.4089 -0.6284 0.6617
vn 0.1024 -0.3151 0.9435
vn 0.1876 -0.5773 0.7947
vn 0.4713 -0.5831 0.6617
vn 0.3313 -0.0000 0.9435
vn 0.6071 -0.0000 0.7947
vn 0.7002 0.2680 0.6617
vn 0.1024 0.3151 0.9435
vn 0.1876 0.5773 0.7947
vn -0.0385 0.7488 0.6617
vn -0.2680 0.1947 0.9435
vn -0.4911 0.3568 0.7947
vn -0.7240 0.1947 0.6617
vn -0.8897 -0.3151 0.3304
vn -0.7947 -0.5773 0.1876
vn -0.5746 -0.7488 0.3304
vn 0.0247 -0.9435 0.3304
vn 0.3035 -0.9342 0.1876
vn 0.5346 -0.7779 0.3304
vn 0.9050 -0.2680 0.3304
vn 0.9822 -0.0000 0.1876
vn 0.9050 0.2680 0.3304
vn 0.5346 0.7779 0.3304
vn 0.3035 0.9342 0.1876
vn 0.0247 0.9435 0.3304
vn -0.5746 0.7488 0.3304
vn -0.7947 0.5773 0.1876
vn -0.8897 0.3151 0.3304
vn -0.3066 -0.9435 0.1256
vn -0.3035 -0.9342 -0.1876
vn -0.0247 -0.9435 -0.3304
vn 0.8026 -0.5831 0.1256
vn 0.7947 -0.5773 -0.1876
vn 0.8897 -0.3151 -0.3304
vn 0.8026 0.5831 0.1256
vn 0.7947 0.5773 -0.1876
vn 0.5746 0.7488 -0.3304
vn -0.3066 0.9435 0.1256
vn -0.3035 0.9342 -0.1876
vn -0.5346 0.7779 -0.3304
vn -0.9921 -0.0000 0.1256
vn -0.9822 -0.0000 -0.1876
vn -0.9050 -0.2680 -0.3304
vn -0.4713 -0.5831 -0.6617
vn -0.1876 -0.5773 -0.7947
vn 0.0385 -0.7488 -0.6617
vn 0.4089 -0.6284 -0.6617
vn 0.4911 -0.3568 -0.7947
vn 0.7240 -0.1947 -0.6617
vn 0.7240 0.1947 -0.6617
vn 0.4911 0.3568 -0.7947
vn 0.4089 0.6284 -0.6617
vn -0.7002 -0.2680 -0.6617
vn -0.6071 -0.0000 -0.7947
vn -0.3313 -0.0000 -0.9435
vn 0.0385 0.7488 -0.6617
vn -0.1876 0.5773 -0.7947
vn -0.4713 0.5831 -0.6617
vt 0.181819 0.000000
vt 0.227273 0.078731
vt 0.136365 0.078731
vt 0.272728 0.157461
vt 0.318182 0.078731
vt 0.363637 0.157461
vt 0.909091 0.000000
vt 0.954545 0.078731
vt 0.863636 0.078731
vt 0.727273 0.000000
vt 0.772727 0.078731
vt 0.681818 0.078731
vt 0.545455 0.000000
vt 0.590909 0.078731
vt 0.500000 0.078731
vt 0.318182 0.236191
vt 0.090910 0.157461
vt 0.181819 0.157461
vt 0.136365 0.236191
vt 0.818182 0.157461
vt 0.909091 0.157461
vt 0.863636 0.236191
vt 0.636364 0.157461
vt 0.727273 0.157461
vt 0.681818 0.236191
vt 0.454546 0.157461
vt 0.545455 0.157461
vt 0.500000 0.236191
vt 0.227273 0.236191
vt 0.045455 0.236191
vt 0.772727 0.236191
vt 0.590909 0.236191
vt 0.409092 0.236191
vt 0.181819 0.314921
vt 0.272728 0.314921
vt 0.227273 0.393651
vt 0.000000 0.314921
vt 0.090910 0.314921
vt 0.045455 0.393651
vt 0.727273 0.314921
vt 0.818182 0.314921
vt 0.772727 0.393651
vt 0.545455 0.314921
vt 0.636364 0.314921
vt 0.590909 0.393651
vt 0.363637 0.314921
vt 0.454546 0.314921
vt 0.409092 0.393651
vt 0.500000 0.393651
vt 0.454546 0.472382
vt 0.681818 0.393651
vt 0.636364 0.472382
vt 0.863636 0.393651
vt 0.818182 0.472382
vt 0.909091 0.314921
vt 0.136365 0.393651
vt 0.090910 0.472382
vt 0.318182 0.393651
vt 0.272728 0.472382
vt 0.954545 0.236191
vt 1.000000 0.157461
vt 0.409092 0.078731
vt 0.363637 0.000000
s 0
usemtl Material.002
f 289/577/161 302/578/161 301/579/161
f 290/580/162 302/581/162 304/582/162
f 289/583/163 301/584/163 306/585/163
f 289/586/164 306/587/164 308/588/164
f 289/589/165 308/590/165 305/591/165
f 290/580/166 304/582/166 311/592/166
f 291/593/167 303/594/167 313/595/167
f 292/596/168 307/597/168 315/598/168
f 293/599/169 309/600/169 317/601/169
f 294/602/170 310/603/170 319/604/170
f 290/580/171 311/592/171 314/605/171
f 291/593/172 313/595/172 316/606/172
f 292/596/173 315/598/173 318/607/173
f 293/599/174 317/601/174 320/608/174
f 294/602/175 319/604/175 312/609/175
f 295/610/176 321/611/176 326/612/176
f 296/613/177 322/614/177 328/615/177
f 297/616/178 323/617/178 329/618/178
f 298/619/179 324/620/179 330/621/179
f 299/622/180 325/623/180 327/624/180
f 327/624/181 330/625/181 300/626/181
f 327/624/182 325/623/182 330/625/182
f 325/623/183 298/619/183 330/625/183
f 330/621/184 329/627/184 300/628/184
f 330/621/185 324/620/185 329/627/185
f 324/620/186 297/616/186 329/627/186
f 329/618/187 328/629/187 300/630/187
f 329/618/188 323/617/188 328/629/188
f 323/617/189 296/631/189 328/629/189
f 328/615/190 326/632/190 300/633/190
f 328/615/191 322/614/191 326/632/191
f 322/614/192 295/610/192 326/632/192
f 326/612/193 327/634/193 300/635/193
f 326/612/194 321/611/194 327/634/194
f 321/611/195 299/622/195 327/634/195
f 312/609/196 325/623/196 299/622/196
f 312/609/197 319/604/197 325/623/197
f 319/604/198 298/619/198 325/623/198
f 320/608/199 324/620/199 298/619/199
f 320/608/200 317/601/200 324/620/200
f 317/601/201 297/616/201 324/620/201
f 318/607/202 323/617/202 297/616/202
f 318/607/203 315/598/203 323/617/203
f 315/598/204 296/631/204 323/617/204
f 316/606/205 322/614/205 296/613/205
f 316/606/206 313/595/206 322/614/206
f 313/595/207 295/610/207 322/614/207
f 314/605/208 321/611/208 295/610/208
f 314/605/209 311/592/209 321/611/209
f 311/592/210 299/622/210 321/611/210
f 319/604/211 320/608/211 298/619/211
f 319/604/212 310/603/212 320/608/212
f 310/603/213 293/599/213 320/608/213
f 317/601/214 318/607/214 297/616/214
f 317/601/215 309/600/215 318/607/215
f 309/600/216 292/596/216 318/607/216
f 315/598/217 316/636/217 296/631/217
f 315/598/218 307/597/218 316/636/218
f 307/597/219 291/637/219 316/636/219
f 313/595/220 314/605/220 295/610/220
f 313/595/221 303/594/221 314/605/221
f 303/594/222 290/580/222 314/605/222
f 311/592/223 312/609/223 299/622/223
f 311/592/224 304/582/224 312/609/224
f 304/582/225 294/602/225 312/609/225
f 305/591/226 310/603/226 294/602/226
f 305/591/227 308/590/227 310/603/227
f 308/590/228 293/599/228 310/603/228
f 308/588/229 309/600/229 293/599/229
f 308/588/230 306/587/230 309/600/230
f 306/587/231 292/596/231 309/600/231
f 306/585/232 307/597/232 292/596/232
f 306/585/233 301/584/233 307/597/233
f 301/584/234 291/637/234 307/597/234
f 304/582/235 305/638/235 294/602/235
f 304/582/236 302/581/236 305/638/236
f 302/581/237 289/639/237 305/638/237
f 301/579/238 303/594/238 291/593/238
f 301/579/239 302/578/239 303/594/239
f 302/578/240 290/580/240 303/594/240
o Icosphere.001
v 12.393315 12.450315 5.036628
v 11.669708 12.976041 5.589409
v 12.669703 13.300964 5.589408
v 13.287742 12.450315 5.589413
v 12.669703 11.599667 5.589408
v 11.669708 11.924590 5.589409
v 12.116927 13.300964 6.483848
v 13.116922 12.976041 6.483848
v 13.116922 11.924590 6.483848
v 12.116927 11.599667 6.483848
v 11.498889 12.450315 6.483844
v 12.393315 12.450315 7.036628
v 12.555771 12.950311 5.185974
v 11.967993 12.759327 5.185974
v 12.130446 13.259327 5.510890
v 11.542667 12.450315 5.510892
v 11.967993 12.141304 5.185974
v 12.919045 12.450315 5.185977
v 13.081505 12.950313 5.510892
v 12.555771 11.950320 5.185974
v 13.081505 11.950318 5.510892
v 12.130446 11.641304 5.510890
v 11.442258 12.759328 6.036628
v 11.442258 12.141303 6.036628
v 12.393315 13.450315 6.036628
v 11.805530 13.259333 6.036628
v 13.344373 12.759328 6.036628
v 12.981101 13.259333 6.036628
v 12.981101 11.641298 6.036628
v 13.344373 12.141303 6.036628
v 11.805530 11.641298 6.036628
v 12.393315 11.450315 6.036628
v 11.705126 12.950313 6.562365
v 12.656184 13.259327 6.562366
v 13.243963 12.450315 6.562364
v 12.656184 11.641304 6.562366
v 11.705126 11.950318 6.562365
v 12.230860 12.950311 6.887282
v 11.867585 12.450315 6.887280
v 12.818638 12.759327 6.887282
v 12.818638 12.141304 6.887282
v 12.230860 11.950320 6.887282
vn -0.1024 0.3151 -0.9435
vn -0.7002 0.2680 -0.6617
vn 0.2680 0.1947 -0.9435
vn 0.2680 -0.1947 -0.9435
vn -0.1024 -0.3151 -0.9435
vn -0.9050 0.2680 -0.3304
vn -0.0247 0.9435 -0.3304
vn 0.8897 0.3151 -0.3304
vn 0.5746 -0.7488 -0.3304
vn -0.5346 -0.7779 -0.3304
vn -0.8026 0.5831 -0.1256
vn 0.3066 0.9435 -0.1256
vn 0.9921 -0.0000 -0.1256
vn 0.3066 -0.9435 -0.1256
vn -0.8026 -0.5831 -0.1256
vn -0.4089 0.6284 0.6617
vn 0.4713 0.5831 0.6617
vn 0.7002 -0.2680 0.6617
vn -0.0385 -0.7488 0.6617
vn -0.7240 -0.1947 0.6617
vn -0.2680 -0.1947 0.9435
vn -0.4911 -0.3568 0.7947
vn -0.4089 -0.6284 0.6617
vn 0.1024 -0.3151 0.9435
vn 0.1876 -0.5773 0.7947
vn 0.4713 -0.5831 0.6617
vn 0.3313 -0.0000 0.9435
vn 0.6071 -0.0000 0.7947
vn 0.7002 0.2680 0.6617
vn 0.1024 0.3151 0.9435
vn 0.1876 0.5773 0.7947
vn -0.0385 0.7488 0.6617
vn -0.2680 0.1947 0.9435
vn -0.4911 0.3568 0.7947
vn -0.7240 0.1947 0.6617
vn -0.8897 -0.3151 0.3304
vn -0.7947 -0.5773 0.1876
vn -0.5746 -0.7488 0.3304
vn 0.0247 -0.9435 0.3304
vn 0.3035 -0.9342 0.1876
vn 0.5346 -0.7779 0.3304
vn 0.9050 -0.2680 0.3304
vn 0.9822 -0.0000 0.1876
vn 0.9050 0.2680 0.3304
vn 0.5346 0.7779 0.3304
vn 0.3035 0.9342 0.1876
vn 0.0247 0.9435 0.3304
vn -0.5746 0.7488 0.3304
vn -0.7947 0.5773 0.1876
vn -0.8897 0.3151 0.3304
vn -0.3066 -0.9435 0.1256
vn -0.3035 -0.9342 -0.1876
vn -0.0247 -0.9435 -0.3304
vn 0.8026 -0.5831 0.1256
vn 0.7947 -0.5773 -0.1876
vn 0.8897 -0.3151 -0.3304
vn 0.8026 0.5831 0.1256
vn 0.7947 0.5773 -0.1876
vn 0.5746 0.7488 -0.3304
vn -0.3066 0.9435 0.1256
vn -0.3035 0.9342 -0.1876
vn -0.5346 0.7779 -0.3304
vn -0.9921 -0.0000 0.1256
vn -0.9822 -0.0000 -0.1876
vn -0.9050 -0.2680 -0.3304
vn -0.4713 -0.5831 -0.6617
vn -0.1876 -0.5773 -0.7947
vn 0.0385 -0.7488 -0.6617
vn 0.4089 -0.6284 -0.6617
vn 0.4911 -0.3568 -0.7947
vn 0.7240 -0.1947 -0.6617
vn 0.7240 0.1947 -0.6617
vn 0.4911 0.3568 -0.7947
vn 0.4089 0.6284 -0.6617
vn -0.7002 -0.2680 -0.6617
vn -0.6071 -0.0000 -0.7947
vn -0.3313 -0.0000 -0.9435
vn 0.0385 0.7488 -0.6617
vn -0.1876 0.5773 -0.7947
vn -0.4713 0.5831 -0.6617
vt 0.181819 0.000000
vt 0.227273 0.078731
vt 0.136365 0.078731
vt 0.272728 0.157461
vt 0.318182 0.078731
vt 0.363637 0.157461
vt 0.909091 0.000000
vt 0.954545 0.078731
vt 0.863636 0.078731
vt 0.727273 0.000000
vt 0.772727 0.078731
vt 0.681818 0.078731
vt 0.545455 0.000000
vt 0.590909 0.078731
vt 0.500000 0.078731
vt 0.318182 0.236191
vt 0.090910 0.157461
vt 0.181819 0.157461
vt 0.136365 0.236191
vt 0.818182 0.157461
vt 0.909091 0.157461
vt 0.863636 0.236191
vt 0.636364 0.157461
vt 0.727273 0.157461
vt 0.681818 0.236191
vt 0.454546 0.157461
vt 0.545455 0.157461
vt 0.500000 0.236191
vt 0.227273 0.236191
vt 0.045455 0.236191
vt 0.772727 0.236191
vt 0.590909 0.236191
vt 0.409092 0.236191
vt 0.181819 0.314921
vt 0.272728 0.314921
vt 0.227273 0.393651
vt 0.000000 0.314921
vt 0.090910 0.314921
vt 0.045455 0.393651
vt 0.727273 0.314921
vt 0.818182 0.314921
vt 0.772727 0.393651
vt 0.545455 0.314921
vt 0.636364 0.314921
vt 0.590909 0.393651
vt 0.363637 0.314921
vt 0.454546 0.314921
vt 0.409092 0.393651
vt 0.500000 0.393651
vt 0.454546 0.472382
vt 0.681818 0.393651
vt 0.636364 0.472382
vt 0.863636 0.393651
vt 0.818182 0.472382
vt 0.909091 0.314921
vt 0.136365 0.393651
vt 0.090910 0.472382
vt 0.318182 0.393651
vt 0.272728 0.472382
vt 0.954545 0.236191
vt 1.000000 0.157461
vt 0.409092 0.078731
vt 0.363637 0.000000
s 0
usemtl Material.002
f 331/640/241 344/641/241 343/642/241
f 332/643/242 344/644/242 346/645/242
f 331/646/243 343/647/243 348/648/243
f 331/649/244 348/650/244 350/651/244
f 331/652/245 350/653/245 347/654/245
f 332/643/246 346/645/246 353/655/246
f 333/656/247 345/657/247 355/658/247
f 334/659/248 349/660/248 357/661/248
f 335/662/249 351/663/249 359/664/249
f 336/665/250 352/666/250 361/667/250
f 332/643/251 353/655/251 356/668/251
f 333/656/252 355/658/252 358/669/252
f 334/659/253 357/661/253 360/670/253
f 335/662/254 359/664/254 362/671/254
f 336/665/255 361/667/255 354/672/255
f 337/673/256 363/674/256 368/675/256
f 338/676/257 364/677/257 370/678/257
f 339/679/258 365/680/258 371/681/258
f 340/682/259 366/683/259 372/684/259
f 341/685/260 367/686/260 369/687/260
f 369/687/261 372/688/261 342/689/261
f 369/687/262 367/686/262 372/688/262
f 367/686/263 340/682/263 372/688/263
f 372/684/264 371/690/264 342/691/264
f 372/684/265 366/683/265 371/690/265
f 366/683/266 339/679/266 371/690/266
f 371/681/267 370/692/267 342/693/267
f 371/681/268 365/680/268 370/692/268
f 365/680/269 338/694/269 370/692/269
f 370/678/270 368/695/270 342/696/270
f 370/678/271 364/677/271 368/695/271
f 364/677/272 337/673/272 368/695/272
f 368/675/273 369/697/273 342/698/273
f 368/675/274 363/674/274 369/697/274
f 363/674/275 341/685/275 369/697/275
f 354/672/276 367/686/276 341/685/276
f 354/672/277 361/667/277 367/686/277
f 361/667/278 340/682/278 367/686/278
f 362/671/279 366/683/279 340/682/279
f 362/671/280 359/664/280 366/683/280
f 359/664/281 339/679/281 366/683/281
f 360/670/282 365/680/282 339/679/282
f 360/670/283 357/661/283 365/680/283
f 357/661/284 338/694/284 365/680/284
f 358/669/285 364/677/285 338/676/285
f 358/669/286 355/658/286 364/677/286
f 355/658/287 337/673/287 364/677/287
f 356/668/288 363/674/288 337/673/288
f 356/668/289 353/655/289 363/674/289
f 353/655/290 341/685/290 363/674/290
f 361/667/291 362/671/291 340/682/291
f 361/667/292 352/666/292 362/671/292
f 352/666/293 335/662/293 362/671/293
f 359/664/294 360/670/294 339/679/294
f 359/664/295 351/663/295 360/670/295
f 351/663/296 334/659/296 360/670/296
f 357/661/297 358/699/297 338/694/297
f 357/661/298 349/660/298 358/699/298
f 349/660/299 333/700/299 358/699/299
f 355/658/300 356/668/300 337/673/300
f 355/658/301 345/657/301 356/668/301
f 345/657/302 332/643/302 356/668/302
f 353/655/303 354/672/303 341/685/303
f 353/655/304 346/645/304 354/672/304
f 346/645/305 336/665/305 354/672/305
f 347/654/306 352/666/306 336/665/306
f 347/654/307 350/653/307 352/666/307
f 350/653/308 335/662/308 352/666/308
f 350/651/309 351/663/309 335/662/309
f 350/651/310 348/650/310 351/663/310
f 348/650/311 334/659/311 351/663/311
f 348/648/312 349/660/312 334/659/312
f 348/648/313 343/647/313 349/660/313
f 343/647/314 333/700/314 349/660/314
f 346/645/315 347/701/315 336/665/315
f 346/645/316 344/644/316 347/701/316
f 344/644/317 331/702/317 347/701/317
f 343/642/318 345/657/318 333/656/318
f 343/642/319 344/641/319 345/657/319
f 344/641/320 332/643/320 345/657/320
o Icosphere.002
v 12.237732 -12.706560 5.036628
v 11.514125 -12.180835 5.589409
v 12.514120 -11.855911 5.589408
v 13.132158 -12.706560 5.589413
v 12.514120 -13.557209 5.589408
v 11.514125 -13.232285 5.589409
v 11.961344 -11.855911 6.483848
v 12.961339 -12.180835 6.483848
v 12.961339 -13.232285 6.483848
v 11.961344 -13.557209 6.483848
v 11.343306 -12.706560 6.483844
v 12.237732 -12.706560 7.036628
v 12.400187 -12.206565 5.185974
v 11.812409 -12.397549 5.185974
v 11.974863 -11.897549 5.510890
v 11.387084 -12.706560 5.510892
v 11.812409 -13.015572 5.185974
v 12.763462 -12.706560 5.185977
v 12.925921 -12.206563 5.510892
v 12.400187 -13.206555 5.185974
v 12.925921 -13.206557 5.510892
v 11.974863 -13.515572 5.510890
v 11.286674 -12.397548 6.036628
v 11.286674 -13.015573 6.036628
v 12.237732 -11.706560 6.036628
v 11.649946 -11.897543 6.036628
v 13.188789 -12.397548 6.036628
v 12.825518 -11.897543 6.036628
v 12.825518 -13.515577 6.036628
v 13.188789 -13.015573 6.036628
v 11.649946 -13.515577 6.036628
v 12.237732 -13.706560 6.036628
v 11.549542 -12.206563 6.562365
v 12.500601 -11.897549 6.562366
v 13.088380 -12.706560 6.562364
v 12.500601 -13.515572 6.562366
v 11.549542 -13.206557 6.562365
v 12.075276 -12.206565 6.887282
v 11.712002 -12.706560 6.887280
v 12.663054 -12.397549 6.887282
v 12.663054 -13.015572 6.887282
v 12.075276 -13.206555 6.887282
vn -0.1024 0.3151 -0.9435
vn -0.7002 0.2680 -0.6617
vn 0.2680 0.1947 -0.9435
vn 0.2680 -0.1947 -0.9435
vn -0.1024 -0.3151 -0.9435
vn -0.9050 0.2680 -0.3304
vn -0.0247 0.9435 -0.3304
vn 0.8897 0.3151 -0.3304
vn 0.5746 -0.7488 -0.3304
vn -0.5346 -0.7779 -0.3304
vn -0.8026 0.5831 -0.1256
vn 0.3066 0.9435 -0.1256
vn 0.9921 -0.0000 -0.1256
vn 0.3066 -0.9435 -0.1256
vn -0.8026 -0.5831 -0.1256
vn -0.4089 0.6284 0.6617
vn 0.4713 0.5831 0.6617
vn 0.7002 -0.2680 0.6617
vn -0.0385 -0.7488 0.6617
vn -0.7240 -0.1947 0.6617
vn -0.2680 -0.1947 0.9435
vn -0.4911 -0.3568 0.7947
vn -0.4089 -0.6284 0.6617
vn 0.1024 -0.3151 0.9435
vn 0.1876 -0.5773 0.7947
vn 0.4713 -0.5831 0.6617
vn 0.3313 -0.0000 0.9435
vn 0.6071 -0.0000 0.7947
vn 0.7002 0.2680 0.6617
vn 0.1024 0.3151 0.9435
vn 0.1876 0.5773 0.7947
vn -0.0385 0.7488 0.6617
vn -0.2680 0.1947 0.9435
vn -0.4911 0.3568 0.7947
vn -0.7240 0.1947 0.6617
vn -0.8897 -0.3151 0.3304
vn -0.7947 -0.5773 0.1876
vn -0.5746 -0.7488 0.3304
vn 0.0247 -0.9435 0.3304
vn 0.3035 -0.9342 0.1876
vn 0.5346 -0.7779 0.3304
vn 0.9050 -0.2680 0.3304
vn 0.9822 -0.0000 0.1876
vn 0.9050 0.2680 0.3304
vn 0.5346 0.7779 0.3304
vn 0.3035 0.9342 0.1876
vn 0.0247 0.9435 0.3304
vn -0.5746 0.7488 0.3304
vn -0.7947 0.5773 0.1876
vn -0.8897 0.3151 0.3304
vn -0.3066 -0.9435 0.1256
vn -0.3035 -0.9342 -0.1876
vn -0.0247 -0.9435 -0.3304
vn 0.8026 -0.5831 0.1256
vn 0.7947 -0.5773 -0.1876
vn 0.8897 -0.3151 -0.3304
vn 0.8026 0.5831 0.1256
vn 0.7947 0.5773 -0.1876
vn 0.5746 0.7488 -0.3304
vn -0.3066 0.9435 0.1256
vn -0.3035 0.9342 -0.1876
vn -0.5346 0.7779 -0.3304
vn -0.9921 -0.0000 0.1256
vn -0.9822 -0.0000 -0.1876
vn -0.9050 -0.2680 -0.3304
vn -0.4713 -0.5831 -0.6617
vn -0.1876 -0.5773 -0.7947
vn 0.0385 -0.7488 -0.6617
vn 0.4089 -0.6284 -0.6617
vn 0.4911 -0.3568 -0.7947
vn 0.7240 -0.1947 -0.6617
vn 0.7240 0.1947 -0.6617
vn 0.4911 0.3568 -0.7947
vn 0.4089 0.6284 -0.6617
vn -0.7002 -0.2680 -0.6617
vn -0.6071 -0.0000 -0.7947
vn -0.3313 -0.0000 -0.9435
vn 0.0385 0.7488 -0.6617
vn -0.1876 0.5773 -0.7947
vn -0.4713 0.5831 -0.6617
vt 0.181819 0.000000
vt 0.227273 0.078731
vt 0.136365 0.078731
vt 0.272728 0.157461
vt 0.318182 0.078731
vt 0.363637 0.157461
vt 0.909091 0.000000
vt 0.954545 0.078731
vt 0.863636 0.078731
vt 0.727273 0.000000
vt 0.772727 0.078731
vt 0.681818 0.078731
vt 0.545455 0.000000
vt 0.590909 0.078731
vt 0.500000 0.078731
vt 0.318182 0.236191
vt 0.090910 0.157461
vt 0.181819 0.157461
vt 0.136365 0.236191
vt 0.818182 0.157461
vt 0.909091 0.157461
vt 0.863636 0.236191
vt 0.636364 0.157461
vt 0.727273 0.157461
vt 0.681818 0.236191
vt 0.454546 0.157461
vt 0.545455 0.157461
vt 0.500000 0.236191
vt 0.227273 0.236191
vt 0.045455 0.236191
vt 0.772727 0.236191
vt 0.590909 0.236191
vt 0.409092 0.236191
vt 0.181819 0.314921
vt 0.272728 0.314921
vt 0.227273 0.393651
vt 0.000000 0.314921
vt 0.090910 0.314921
vt 0.045455 0.393651
vt 0.727273 0.314921
vt 0.818182 0.314921
vt 0.772727 0.393651
vt 0.545455 0.314921
vt 0.636364 0.314921
vt 0.590909 0.393651
vt 0.363637 0.314921
vt 0.454546 0.314921
vt 0.409092 0.393651
vt 0.500000 0.393651
vt 0.454546 0.472382
vt 0.681818 0.393651
vt 0.636364 0.472382
vt 0.863636 0.393651
vt 0.818182 0.472382
vt 0.909091 0.314921
vt 0.136365 0.393651
vt 0.090910 0.472382
vt 0.318182 0.393651
vt 0.272728 0.472382
vt 0.954545 0.236191
vt 1.000000 0.157461
vt 0.409092 0.078731
vt 0.363637 0.000000
s 0
usemtl Material.002
f 373/703/321 386/704/321 385/705/321
f 374/706/322 386/707/322 388/708/322
f 373/709/323 385/710/323 390/711/323
f 373/712/324 390/713/324 392/714/324
f 373/715/325 392/716/325 389/717/325
f 374/706/326 388/708/326 395/718/326
f 375/719/327 387/720/327 397/721/327
f 376/722/328 391/723/328 399/724/328
f 377/725/329 393/726/329 401/727/329
f 378/728/330 394/729/330 403/730/330
f 374/706/331 395/718/331 398/731/331
f 375/719/332 397/721/332 400/732/332
f 376/722/333 399/724/333 402/733/333
f 377/725/334 401/727/334 404/734/334
f 378/728/335 403/730/335 396/735/335
f 379/736/336 405/737/336 410/738/336
f 380/739/337 406/740/337 412/741/337
f 381/742/338 407/743/338 413/744/338
f 382/745/339 408/746/339 414/747/339
f 383/748/340 409/749/340 411/750/340
f 411/750/341 414/751/341 384/752/341
f 411/750/342 409/749/342 414/751/342
f 409/749/343 382/745/343 414/751/343
f 414/747/344 413/753/344 384/754/344
f 414/747/345 408/746/345 413/753/345
f 408/746/346 381/742/346 413/753/346
f 413/744/347 412/755/347 384/756/347
f 413/744/348 407/743/348 412/755/348
f 407/743/349 380/757/349 412/755/349
f 412/741/350 410/758/350 384/759/350
f 412/741/351 406/740/351 410/758/351
f 406/740/352 379/736/352 410/758/352
f 410/738/353 411/760/353 384/761/353
f 410/738/354 405/737/354 411/760/354
f 405/737/355 383/748/355 411/760/355
f 396/735/356 409/749/356 383/748/356
f 396/735/357 403/730/357 409/749/357
f 403/730/358 382/745/358 409/749/358
f 404/734/359 408/746/359 382/745/359
f 404/734/360 401/727/360 408/746/360
f 401/727/361 381/742/361 408/746/361
f 402/733/362 407/743/362 381/742/362
f 402/733/363 399/724/363 407/743/363
f 399/724/364 380/757/364 407/743/364
f 400/732/365 406/740/365 380/739/365
f 400/732/366 397/721/366 406/740/366
f 397/721/367 379/736/367 406/740/367
f 398/731/368 405/737/368 379/736/368
f 398/731/369 395/718/369 405/737/369
f 395/718/370 383/748/370 405/737/370
f 403/730/371 404/734/371 382/745/371
f 403/730/372 394/729/372 404/734/372
f 394/729/373 377/725/373 404/734/373
f 401/727/374 402/733/374 381/742/374
f 401/727/375 393/726/375 402/733/375
f 393/726/376 376/722/376 402/733/376
f 399/724/377 400/762/377 380/757/377
f 399/724/378 391/723/378 400/762/378
f 391/723/379 375/763/379 400/762/379
f 397/721/380 398/731/380 379/736/380
f 397/721/381 387/720/381 398/731/381
f 387/720/382 374/706/382 398/731/382
f 395/718/383 396/735/383 383/748/383
f 395/718/384 388/708/384 396/735/384
f 388/708/385 378/728/385 396/735/385
f 389/717/386 394/729/386 378/728/386
f 389/717/387 392/716/387 394/729/387
f 392/716/388 377/725/388 394/729/388
f 392/714/389 393/726/389 377/725/389
f 392/714/390 390/713/390 393/726/390
f 390/713/391 376/722/391 393/726/391
f 390/711/392 391/723/392 376/722/392
f 390/711/393 385/710/393 391/723/393
f 385/710/394 375/763/394 391/723/394
f 388/708/395 389/764/395 378/728/395
f 388/708/396 386/707/396 389/764/396
f 386/707/397 373/765/397 389/764/397
f 385/705/398 387/720/398 375/719/398
f 385/705/399 386/704/399 387/720/399
f 386/704/400 374/706/400 387/720/400
o Icosphere.003
v -12.483523 -12.706560 5.036628
v -13.207130 -12.180835 5.589409
v -12.207135 -11.855911 5.589408
v -11.589097 -12.706560 5.589413
v -12.207135 -13.557209 5.589408
v -13.207130 -13.232285 5.589409
v -12.759912 -11.855911 6.483848
v -11.759916 -12.180835 6.483848
v -11.759916 -13.232285 6.483848
v -12.759912 -13.557209 6.483848
v -13.377950 -12.706560 6.483844
v -12.483523 -12.706560 7.036628
v -12.321068 -12.206565 5.185974
v -12.908846 -12.397549 5.185974
v -12.746392 -11.897549 5.510890
v -13.334171 -12.706560 5.510892
v -12.908846 -13.015572 5.185974
v -11.957793 -12.706560 5.185977
v -11.795334 -12.206563 5.510892
v -12.321068 -13.206555 5.185974
v -11.795334 -13.206557 5.510892
v -12.746392 -13.515572 5.510890
v -13.434581 -12.397548 6.036628
v -13.434581 -13.015573 6.036628
v -12.483523 -11.706560 6.036628
v -13.071309 -11.897543 6.036628
v -11.532466 -12.397548 6.036628
v -11.895738 -11.897543 6.036628
v -11.895738 -13.515577 6.036628
v -11.532466 -13.015573 6.036628
v -13.071309 -13.515577 6.036628
v -12.483523 -13.706560 6.036628
v -13.171713 -12.206563 6.562365
v -12.220654 -11.897549 6.562366
v -11.632875 -12.706560 6.562364
v -12.220654 -13.515572 6.562366
v -13.171713 -13.206557 6.562365
v -12.645979 -12.206565 6.887282
v -13.009254 -12.706560 6.887280
v -12.058201 -12.397549 6.887282
v -12.058201 -13.015572 6.887282
v -12.645979 -13.206555 6.887282
vn -0.1024 0.3151 -0.9435
vn -0.7002 0.2680 -0.6617
vn 0.2680 0.1947 -0.9435
vn 0.2680 -0.1947 -0.9435
vn -0.1024 -0.3151 -0.9435
vn -0.9050 0.2680 -0.3304
vn -0.0247 0.9435 -0.3304
vn 0.8897 0.3151 -0.3304
vn 0.5746 -0.7488 -0.3304
vn -0.5346 -0.7779 -0.3304
vn -0.8026 0.5831 -0.1256
vn 0.3066 0.9435 -0.1256
vn 0.9921 -0.0000 -0.1256
vn 0.3066 -0.9435 -0.1256
vn -0.8026 -0.5831 -0.1256
vn -0.4089 0.6284 0.6617
vn 0.4713 0.5831 0.6617
vn 0.7002 -0.2680 0.6617
vn -0.0385 -0.7488 0.6617
vn -0.7240 -0.1947 0.6617
vn -0.2680 -0.1947 0.9435
vn -0.4911 -0.3568 0.7947
vn -0.4089 -0.6284 0.6617
vn 0.1024 -0.3151 0.9435
vn 0.1876 -0.5773 0.7947
vn 0.4713 -0.5831 0.6617
vn 0.3313 -0.0000 0.9435
vn 0.6071 -0.0000 0.7947
vn 0.7002 0.2680 0.6617
vn 0.1024 0.3151 0.9435
vn 0.1876 0.5773 0.7947
vn -0.0385 0.7488 0.6617
vn -0.2680 0.1947 0.9435
vn -0.4911 0.3568 0.7947
vn -0.7240 0.1947 0.6617
vn -0.8897 -0.3151 0.3304
vn -0.7947 -0.5773 0.1876
vn -0.5746 -0.7488 0.3304
vn 0.0247 -0.9435 0.3304
vn 0.3035 -0.9342 0.1876
vn 0.5346 -0.7779 0.3304
vn 0.9050 -0.2680 0.3304
vn 0.9822 -0.0000 0.1876
vn 0.9050 0.2680 0.3304
vn 0.5346 0.7779 0.3304
vn 0.3035 0.9342 0.1876
vn 0.0247 0.9435 0.3304
vn -0.5746 0.7488 0.3304
vn -0.7947 0.5773 0.1876
vn -0.8897 0.3151 0.3304
vn -0.3066 -0.9435 0.1256
vn -0.3035 -0.9342 -0.1876
vn -0.0247 -0.9435 -0.3304
vn 0.8026 -0.5831 0.1256
vn 0.7947 -0.5773 -0.1876
vn 0.8897 -0.3151 -0.3304
vn 0.8026 0.5831 0.1256
vn 0.7947 0.5773 -0.1876
vn 0.5746 0.7488 -0.3304
vn -0.3066 0.9435 0.1256
vn -0.3035 0.9342 -0.1876
vn -0.5346 0.7779 -0.3304
vn -0.9921 -0.0000 0.1256
vn -0.9822 -0.0000 -0.1876
vn -0.9050 -0.2680 -0.3304
vn -0.4713 -0.5831 -0.6617
vn -0.1876 -0.5773 -0.7947
vn 0.0385 -0.7488 -0.6617
vn 0.4089 -0.6284 -0.6617
vn 0.4911 -0.3568 -0.7947
vn 0.7240 -0.1947 -0.6617
vn 0.7240 0.1947 -0.6617
vn 0.4911 0.3568 -0.7947
vn 0.4089 0.6284 -0.6617
vn -0.7002 -0.2680 -0.6617
vn -0.6071 -0.0000 -0.7947
vn -0.3313 -0.0000 -0.9435
vn 0.0385 0.7488 -0.6617
vn -0.1876 0.5773 -0.7947
vn -0.4713 0.5831 -0.6617
vt 0.181819 0.000000
vt 0.227273 0.078731
vt 0.136365 0.078731
vt 0.272728 0.157461
vt 0.318182 0.078731
vt 0.363637 0.157461
vt 0.909091 0.000000
vt 0.954545 0.078731
vt 0.863636 0.078731
vt 0.727273 0.000000
vt 0.772727 0.078731
vt 0.681818 0.078731
vt 0.545455 0.000000
vt 0.590909 0.078731
vt 0.500000 0.078731
vt 0.318182 0.236191
vt 0.090910 0.157461
vt 0.181819 0.157461
vt 0.136365 0.236191
vt 0.818182 0.157461
vt 0.909091 0.157461
vt 0.863636 0.236191
vt 0.636364 0.157461
vt 0.727273 0.157461
vt 0.681818 0.236191
vt 0.454546 0.157461
vt 0.545455 0.157461
vt 0.500000 0.236191
vt 0.227273 0.236191
vt 0.045455 0.236191
vt 0.772727 0.236191
vt 0.590909 0.236191
vt 0.409092 0.236191
vt 0.181819 0.314921
vt 0.272728 0.314921
vt 0.227273 0.393651
vt 0.000000 0.314921
vt 0.090910 0.314921
vt 0.045455 0.393651
vt 0.727273 0.314921
vt 0.818182 0.314921
vt 0.772727 0.393651
vt 0.545455 0.314921
vt 0.636364 0.314921
vt 0.590909 0.393651
vt 0.363637 0.314921
vt 0.454546 0.314921
vt 0.409092 0.393651
vt 0.500000 0.393651
vt 0.454546 0.472382
vt 0.681818 0.393651
vt 0.636364 0.472382
vt 0.863636 0.393651
vt 0.818182 0.472382
vt 0.909091 0.314921
vt 0.136365 0.393651
vt 0.090910 0.472382
vt 0.318182 0.393651
vt 0.272728 0.472382
vt 0.954545 0.236191
vt 1.000000 0.157461
vt 0.409092 0.078731
vt 0.363637 0.000000
s 0
usemtl Material.002
f 415/766/401 428/767/401 427/768/401
f 416/769/402 428/770/402 430/771/402
f 415/772/403 427/773/403 432/774/403
f 415/775/404 432/776/404 434/777/404
f 415/778/405 434/779/405 431/780/405
f 416/769/406 430/771/406 437/781/406
f 417/782/407 429/783/407 439/784/407
f 418/785/408 433/786/408 441/787/408
f 419/788/409 435/789/409 443/790/409
f 420/791/410 436/792/410 445/793/410
f 416/769/411 437/781/411 440/794/411
f 417/782/412 439/784/412 442/795/412
f 418/785/413 441/787/413 444/796/413
f 419/788/414 443/790/414 446/797/414
f 420/791/415 445/793/415 438/798/415
f 421/799/416 447/800/416 452/801/416
f 422/802/417 448/803/417 454/804/417
f 423/805/418 449/806/418 455/807/418
f 424/808/419 450/809/419 456/810/419
f 425/811/420 451/812/420 453/813/420
f 453/813/421 456/814/421 426/815/421
f 453/813/422 451/812/422 456/814/422
f 451/812/423 424/808/423 456/814/423
f 456/810/424 455/816/424 426/817/424
f 456/810/425 450/809/425 455/816/425
f 450/809/426 423/805/426 455/816/426
f 455/807/427 454/818/427 426/819/427
f 455/807/428 449/806/428 454/818/428
f 449/806/429 422/820/429 454/818/429
f 454/804/430 452/821/430 426/822/430
f 454/804/431 448/803/431 452/821/431
f 448/803/432 421/799/432 452/821/432
f 452/801/433 453/823/433 426/824/433
f 452/801/434 447/800/434 453/823/434
f 447/800/435 425/811/435 453/823/435
f 438/798/436 451/812/436 425/811/436
f 438/798/437 445/793/437 451/812/437
f 445/793/438 424/808/438 451/812/438
f 446/797/439 450/809/439 424/808/439
f 446/797/440 443/790/440 450/809/440
f 443/790/441 423/805/441 450/809/441
f 444/796/442 449/806/442 423/805/442
f 444/796/443 441/787/443 449/806/443
f 441/787/444 422/820/444 449/806/444
f 442/795/445 448/803/445 422/802/445
f 442/795/446 439/784/446 448/803/446
f 439/784/447 421/799/447 448/803/447
f 440/794/448 447/800/448 421/799/448
f 440/794/449 437/781/449 447/800/449
f 437/781/450 425/811/450 447/800/450
f 445/793/451 446/797/451 424/808/451
f 445/793/452 436/792/452 446/797/452
f 436/792/453 419/788/453 446/797/453
f 443/790/454 444/796/454 423/805/454
f 443/790/455 435/789/455 444/796/455
f 435/789/456 418/785/456 444/796/456
f 441/787/457 442/825/457 422/820/457
f 441/787/458 433/786/458 442/825/458
f 433/786/459 417/826/459 442/825/459
f 439/784/460 440/794/460 421/799/460
f 439/784/461 429/783/461 440/794/461
f 429/783/462 416/769/462 440/794/462
f 437/781/463 438/798/463 425/811/463
f 437/781/464 430/771/464 438/798/464
f 430/771/465 420/791/465 438/798/465
f 431/780/466 436/792/466 420/791/466
f 431/780/467 434/779/467 436/792/467
f 434/779/468 419/788/468 436/792/468
f 434/777/469 435/789/469 419/788/469
f 434/777/470 432/776/470 435/789/470
f 432/776/471 418/785/471 435/789/471
f 432/774/472 433/786/472 418/785/472
f 432/774/473 427/773/473 433/786/473
f 427/773/474 417/826/474 433/786/474
f 430/771/475 431/827/475 420/791/475
f 430/771/476 428/770/476 431/827/476
f 428/770/477 415/828/477 431/827/477
f 427/768/478 429/783/478 417/782/478
f 427/768/479 428/767/479 429/783/479
f 428/767/480 416/769/480 429/783/480
