# Blender 5.2.2 LTS
# www.blender.org
mtllib velmobil_gym.mtl
o Cube
v 29.908348 30.051270 0.000000
v 29.908348 30.051270 5.723122
v 29.908348 29.537563 0.000000
v 29.908348 29.537563 5.723122
v -30.001301 30.051270 0.000000
v -30.001301 30.051270 5.723122
v -30.001301 29.537563 0.000000
v -30.001301 29.537563 5.723122
vn 1.0000 -0.0000 -0.0000
vn -0.0000 -1.0000 -0.0000
vn -1.0000 -0.0000 -0.0000
vn -0.0000 1.0000 -0.0000
vn -0.0000 -0.0000 -1.0000
vn -0.0000 -0.0000 1.0000
vt 0.375000 0.000000
vt 0.625000 0.000000
vt 0.625000 0.250000
vt 0.375000 0.250000
vt 0.625000 0.500000
vt 0.375000 0.500000
vt 0.625000 0.750000
vt 0.375000 0.750000
vt 0.625000 1.000000
vt 0.375000 1.000000
vt 0.125000 0.500000
vt 0.125000 0.750000
vt 0.875000 0.500000
vt 0.875000 0.750000
s 0
usemtl Material.003
f 1/1/1 2/2/1 4/3/1 3/4/1
f 3/4/2 4/3/2 8/5/2 7/6/2
f 7/6/3 8/5/3 6/7/3 5/8/3
f 5/8/4 6/7/4 2/9/4 1/10/4
f 3/11/5 7/6/5 5/8/5 1/12/5
f 8/5/6 4/13/6 2/14/6 6/7/6
o Cube.001
v 29.908348 -29.948730 0.000000
v 29.908348 -29.948730 5.723122
v 29.908348 -30.462437 0.000000
v 29.908348 -30.462437 5.723122
v -30.001301 -29.948730 0.000000
v -30.001301 -29.948730 5.723122
v -30.001301 -30.462437 0.000000
v -30.001301 -30.462437 5.723122
vn 1.0000 -0.0000 -0.0000
vn -0.0000 -1.0000 -0.0000
vn -1.0000 -0.0000 -0.0000
vn -0.0000 1.0000 -0.0000
vn -0.0000 -0.0000 -1.0000
vn -0.0000 -0.0000 1.0000
vt 0.375000 0.000000
vt 0.625000 0.000000
vt 0.625000 0.250000
vt 0.375000 0.250000
vt 0.625000 0.500000
vt 0.375000 0.500000
vt 0.625000 0.750000
vt 0.375000 0.750000
vt 0.625000 1.000000
vt 0.375000 1.000000
vt 0.125000 0.500000
vt 0.125000 0.750000
vt 0.875000 0.500000
vt 0.875000 0.750000
s 0
usemtl Material.003
f 9/15/7 10/16/7 12/17/7 11/18/7
f 11/18/8 12/17/8 16/19/8 15/20/8
f 15/20/9 16/19/9 14/21/9 13/22/9
f 13/22/10 14/21/10 10/23/10 9/24/10
f 11/25/11 15/20/11 13/22/11 9/26/11
f 16/19/12 12/27/12 10/28/12 14/21/12
o Cube.002
v 29.750074 -30.192841 0.000000
v 29.750074 -30.192841 5.723122
v 29.236368 -30.192841 0.000000
v 29.236368 -30.192841 5.723122
v 29.750078 29.716808 0.000000
v 29.750078 29.716808 5.723122
v 29.236372 29.716808 0.000000
v 29.236372 29.716808 5.723122
vn -0.0000 -1.0000 -0.0000
vn -1.0000 -0.0000 -0.0000
vn -0.0000 1.0000 -0.0000
vn 1.0000 -0.0000 -0.0000
vn -0.0000 -0.0000 -1.0000
vn -0.0000 -0.0000 1.0000
vt 0.375000 0.000000
vt 0.625000 0.000000
vt 0.625000 0.250000
vt 0.375000 0.250000
vt 0.625000 0.500000
vt 0.375000 0.500000
vt 0.625000 0.750000
vt 0.375000 0.750000
vt 0.625000 1.000000
vt 0.375000 1.000000
vt 0.125000 0.500000
vt 0.125000 0.750000
vt 0.875000 0.500000
vt 0.875000 0.750000
s 0
usemtl Material.003
f 17/29/13 18/30/13 20/31/13 19/32/13
f 19/32/14 20/31/14 24/33/14 23/34/14
f 23/34/15 24/33/15 22/35/15 21/36/15
f 21/36/16 22/35/16 18/37/16 17/38/16
f 19/39/17 23/34/17 21/36/17 17/40/17
f 24/33/18 20/41/18 18/42/18 22/35/18
o Cube.003
v -30.249926 -30.192841 0.000000
v -30.249926 -30.192841 5.723122
v -30.763632 -30.192841 0.000000
v -30.763632 -30.192841 5.723122
v -30.249922 29.716808 0.000000
v -30.249922 29.716808 5.723122
v -30.763628 29.716808 0.000000
v -30.763628 29.716808 5.723122
v -30.249926 -30.192841 0.000000
v -30.249926 -30.192841 5.723122
v -30.249922 29.716808 5.723122
v -30.249922 29.716808 0.000000
vn -0.0000 -1.0000 -0.0000
vn -1.0000 -0.0000 -0.0000
vn -0.0000 1.0000 -0.0000
vn -0.0000 -0.0000 1.0000
vn -0.0000 -0.0000 -1.0000
vn 1.0000 -0.0000 -0.0000
vt 0.375000 0.000000
vt 0.625000 0.000000
vt 0.625000 0.250000
vt 0.375000 0.250000
vt 0.625000 0.500000
vt 0.375000 0.500000
vt 0.625000 0.750000
vt 0.375000 0.750000
vt 0.875000 0.750000
vt 0.125000 0.500000
vt 0.125000 0.750000
vt 0.875000 0.500000
vt 0.625000 1.000000
vt 0.375000 1.000000
s 0
usemtl Material.003
f 25/43/19 26/44/19 28/45/19 27/46/19
f 27/46/20 28/45/20 32/47/20 31/48/20
f 31/48/21 32/47/21 30/49/21 29/50/21
f 30/49/22 26/51/22 34/51/22 35/49/22
f 27/52/23 31/48/23 29/50/23 25/53/23
f 32/47/22 28/54/22 26/51/22 30/49/22
f 36/50/24 35/49/24 34/55/24 33/56/24
f 29/50/22 30/49/22 35/49/22 36/50/22
f 26/44/22 25/43/22 33/43/22 34/44/22
f 25/53/22 29/50/22 36/50/22 33/53/22
o Cylinder
v -30.243435 -31.168455 0.004926
v -30.243435 -31.168455 6.004926
v -30.438526 -31.149240 0.004926
v -30.438526 -31.149240 6.004926
v -30.626118 -31.092335 0.004926
v -30.626118 -31.092335 6.004926
v -30.799006 -30.999926 0.004926
v -30.799006 -30.999926 6.004926
v -30.950542 -30.875563 0.004926
v -30.950542 -30.875563 6.004926
v -31.074905 -30.724026 0.004926
v -31.074905 -30.724026 6.004926
v -31.167315 -30.551138 0.004926
v -31.167315 -30.551138 6.004926
v -31.224220 -30.363546 0.004926
v -31.224220 -30.363546 6.004926
v -31.243435 -30.168455 0.004926
v -31.243435 -30.168455 6.004926
v -31.224220 -29.973364 0.004926
v -31.224220 -29.973364 6.004926
v -31.167315 -29.785772 0.004926
v -31.167315 -29.785772 6.004926
v -31.074905 -29.612885 0.004926
v -31.074905 -29.612885 6.004926
v -30.950542 -29.461348 0.004926
v -30.950542 -29.461348 6.004926
v -30.799006 -29.336985 0.004926
v -30.799006 -29.336985 6.004926
v -30.626118 -29.244576 0.004926
v -30.626118 -29.244576 6.004926
v -30.438526 -29.187670 0.004926
v -30.438526 -29.187670 6.004926
v -30.243435 -29.168455 0.004926
v -30.243435 -29.168455 6.004926
v -30.048344 -29.187670 0.004926
v -30.048344 -29.187670 6.004926
v -29.860752 -29.244576 0.004926
v -29.860752 -29.244576 6.004926
v -29.687864 -29.336985 0.004926
v -29.687864 -29.336985 6.004926
v -29.536327 -29.461348 0.004926
v -29.536327 -29.461348 6.004926
v -29.411964 -29.612885 0.004926
v -29.411964 -29.612885 6.004926
v -29.319555 -29.785772 0.004926
v -29.319555 -29.785772 6.004926
v -29.262650 -29.973364 0.004926
v -29.262650 -29.973364 6.004926
v -29.243435 -30.168455 0.004926
v -29.243435 -30.168455 6.004926
v -29.262650 -30.363546 0.004926
v -29.262650 -30.363546 6.004926
v -29.319555 -30.551138 0.004926
v -29.319555 -30.551138 6.004926
v -29.411964 -30.724026 0.004926
v -29.411964 -30.724026 6.004926
v -29.536327 -30.875563 0.004926
v -29.536327 -30.875563 6.004926
v -29.687864 -30.999926 0.004926
v -29.687864 -30.999926 6.004926
v -29.860752 -31.092335 0.004926
v -29.860752 -31.092335 6.004926
v -30.048344 -31.149240 0.004926
v -30.048344 -31.149240 6.004926
vn -0.0980 -0.9952 -0.0000
vn -0.2903 -0.9569 -0.0000
vn -0.4714 -0.8819 -0.0000
vn -0.6344 -0.7730 -0.0000
vn -0.7730 -0.6344 -0.0000
vn -0.8819 -0.4714 -0.0000
vn -0.9569 -0.2903 -0.0000
vn -0.9952 -0.0980 -0.0000
vn -0.9952 0.0980 -0.0000
vn -0.9569 0.2903 -0.0000
vn -0.8819 0.4714 -0.0000
vn -0.7730 0.6344 -0.0000
vn -0.6344 0.7730 -0.0000
vn -0.4714 0.8819 -0.0000
vn -0.2903 0.9569 -0.0000
vn -0.0980 0.9952 -0.0000
vn 0.0980 0.9952 -0.0000
vn 0.2903 0.9569 -0.0000
vn 0.4714 0.8819 -0.0000
vn 0.6344 0.7730 -0.0000
vn 0.7730 0.6344 -0.0000
vn 0.8819 0.4714 -0.0000
vn 0.9569 0.2903 -0.0000
vn 0.9952 0.0980 -0.0000
vn 0.9952 -0.0980 -0.0000
vn 0.9569 -0.2903 -0.0000
vn 0.8819 -0.4714 -0.0000
vn 0.7730 -0.6344 -0.0000
vn 0.6344 -0.7730 -0.0000
vn 0.4714 -0.8819 -0.0000
vn -0.0000 -0.0000 1.0000
vn 0.2903 -0.9569 -0.0000
vn 0.0980 -0.9952 -0.0000
vn -0.0000 -0.0000 -1.0000
vt 1.000000 0.500000
vt 1.000000 1.000000
vt 0.968750 1.000000
vt 0.968750 0.500000
vt 0.937500 1.000000
vt 0.937500 0.500000
vt 0.906250 1.000000
vt 0.906250 0.500000
vt 0.875000 1.000000
vt 0.875000 0.500000
vt 0.843750 1.000000
vt 0.843750 0.500000
vt 0.812500 1.000000
vt 0.812500 0.500000
vt 0.781250 1.000000
vt 0.781250 0.500000
vt 0.750000 1.000000
vt 0.750000 0.500000
vt 0.718750 1.000000
vt 0.718750 0.500000
vt 0.687500 1.000000
vt 0.687500 0.500000
vt 0.656250 1.000000
vt 0.656250 0.500000
vt 0.625000 1.000000
vt 0.625000 0.500000
vt 0.593750 1.000000
vt 0.593750 0.500000
vt 0.562500 1.000000
vt 0.562500 0.500000
vt 0.531250 1.000000
vt 0.531250 0.500000
vt 0.500000 1.000000
vt 0.500000 0.500000
vt 0.468750 1.000000
vt 0.468750 0.500000
vt 0.437500 1.000000
vt 0.437500 0.500000
vt 0.406250 1.000000
vt 0.406250 0.500000
vt 0.375000 1.000000
vt 0.375000 0.500000
vt 0.343750 1.000000
vt 0.343750 0.500000
vt 0.312500 1.000000
vt 0.312500 0.500000
vt 0.281250 1.000000
vt 0.281250 0.500000
vt 0.250000 1.000000
vt 0.250000 0.500000
vt 0.218750 1.000000
vt 0.218750 0.500000
vt 0.187500 1.000000
vt 0.187500 0.500000
vt 0.156250 1.000000
vt 0.156250 0.500000
vt 0.125000 1.000000
vt 0.125000 0.500000
vt 0.093750 1.000000
vt 0.093750 0.500000
vt 0.062500 1.000000
vt 0.062500 0.500000
vt 0.296822 0.485388
vt 0.250000 0.490000
vt 0.203178 0.485388
vt 0.158156 0.471731
vt 0.116663 0.449553
vt 0.080294 0.419706
vt 0.050447 0.383337
vt 0.028269 0.341844
vt 0.014612 0.296822
vt 0.010000 0.250000
vt 0.014612 0.203178
vt 0.028269 0.158156
vt 0.050447 0.116663
vt 0.080294 0.080294
vt 0.116663 0.050447
vt 0.158156 0.028269
vt 0.203178 0.014612
vt 0.250000 0.010000
vt 0.296822 0.014612
vt 0.341844 0.028269
vt 0.383337 0.050447
vt 0.419706 0.080294
vt 0.449553 0.116663
vt 0.471731 0.158156
vt 0.485388 0.203178
vt 0.490000 0.250000
vt 0.485388 0.296822
vt 0.471731 0.341844
vt 0.449553 0.383337
vt 0.419706 0.419706
vt 0.383337 0.449553
vt 0.341844 0.471731
vt 0.031250 1.000000
vt 0.031250 0.500000
vt 0.000000 1.000000
vt 0.000000 0.500000
vt 0.750000 0.490000
vt 0.796822 0.485388
vt 0.841844 0.471731
vt 0.883337 0.449553
vt 0.919706 0.419706
vt 0.949553 0.383337
vt 0.971731 0.341844
vt 0.985388 0.296822
vt 0.990000 0.250000
vt 0.985388 0.203178
vt 0.971731 0.158156
vt 0.949553 0.116663
vt 0.919706 0.080294
vt 0.883337 0.050447
vt 0.841844 0.028269
vt 0.796822 0.014612
vt 0.750000 0.010000
vt 0.703178 0.014612
vt 0.658156 0.028269
vt 0.616663 0.050447
vt 0.580294 0.080294
vt 0.550447 0.116663
vt 0.528269 0.158156
vt 0.514612 0.203178
vt 0.510000 0.250000
vt 0.514612 0.296822
vt 0.528269 0.341844
vt 0.550447 0.383337
vt 0.580294 0.419706
vt 0.616663 0.449553
vt 0.658156 0.471731
vt 0.703178 0.485388
s 0
usemtl Material.004
f 37/57/25 38/58/25 40/59/25 39/60/25
f 39/60/26 40/59/26 42/61/26 41/62/26
f 41/62/27 42/61/27 44/63/27 43/64/27
f 43/64/28 44/63/28 46/65/28 45/66/28
f 45/66/29 46/65/29 48/67/29 47/68/29
f 47/68/30 48/67/30 50/69/30 49/70/30
f 49/70/31 50/69/31 52/71/31 51/72/31
f 51/72/32 52/71/32 54/73/32 53/74/32
f 53/74/33 54/73/33 56/75/33 55/76/33
f 55/76/34 56/75/34 58/77/34 57/78/34
f 57/78/35 58/77/35 60/79/35 59/80/35
f 59/80/36 60/79/36 62/81/36 61/82/36
f 61/82/37 62/81/37 64/83/37 63/84/37
f 63/84/38 64/83/38 66/85/38 65/86/38
f 65/86/39 66/85/39 68/87/39 67/88/39
f 67/88/40 68/87/40 70/89/40 69/90/40
f 69/90/41 70/89/41 72/91/41 71/92/41
f 71/92/42 72/91/42 74/93/42 73/94/42
f 73/94/43 74/93/43 76/95/43 75/96/43
f 75/96/44 76/95/44 78/97/44 77/98/44
f 77/98/45 78/97/45 80/99/45 79/100/45
f 79/100/46 80/99/46 82/101/46 81/102/46
f 81/102/47 82/101/47 84/103/47 83/104/47
f 83/104/48 84/103/48 86/105/48 85/106/48
f 85/106/49 86/105/49 88/107/49 87/108/49
f 87/108/50 88/107/50 90/109/50 89/110/50
f 89/110/51 90/109/51 92/111/51 91/112/51
f 91/112/52 92/111/52 94/113/52 93/114/52
f 93/114/53 94/113/53 96/115/53 95/116/53
f 95/116/54 96/115/54 98/117/54 97/118/54
f 40/119/55 38/120/55 100/121/55 98/122/55 96/123/55 94/124/55 92/125/55 90/126/55 88/127/55 86/128/55 84/129/55 82/130/55 80/131/55 78/132/55 76/133/55 74/134/55 72/135/55 70/136/55 68/137/55 66/138/55 64/139/55 62/140/55 60/141/55 58/142/55 56/143/55 54/144/55 52/145/55 50/146/55 48/147/55 46/148/55 44/149/55 42/150/55
f 97/118/56 98/117/56 100/151/56 99/152/56
f 99/152/57 100/151/57 38/153/57 37/154/57
f 37/155/58 39/156/58 41/157/58 43/158/58 45/159/58 47/160/58 49/161/58 51/162/58 53/163/58 55/164/58 57/165/58 59/166/58 61/167/58 63/168/58 65/169/58 67/170/58 69/171/58 71/172/58 73/173/58 75/174/58 77/175/58 79/176/58 81/177/58 83/178/58 85/179/58 87/180/58 89/181/58 91/182/58 93/183/58 95/184/58 97/185/58 99/186/58
o Cylinder.001
v 29.220596 -31.168455 -0.042766
v 29.220596 -31.168455 5.957234
v 29.025505 -31.149240 -0.042766
v 29.025505 -31.149240 5.957234
v 28.837914 -31.092335 -0.042766
v 28.837914 -31.092335 5.957234
v 28.665026 -30.999926 -0.042766
v 28.665026 -30.999926 5.957234
v 28.513489 -30.875563 -0.042766
v 28.513489 -30.875563 5.957234
v 28.389126 -30.724026 -0.042766
v 28.389126 -30.724026 5.957234
v 28.296717 -30.551138 -0.042766
v 28.296717 -30.551138 5.957234
v 28.239811 -30.363546 -0.042766
v 28.239811 -30.363546 5.957234
v 28.220596 -30.168455 -0.042766
v 28.220596 -30.168455 5.957234
v 28.239811 -29.973364 -0.042766
v 28.239811 -29.973364 5.957234
v 28.296717 -29.785772 -0.042766
v 28.296717 -29.785772 5.957234
v 28.389126 -29.612885 -0.042766
v 28.389126 -29.612885 5.957234
v 28.513489 -29.461348 -0.042766
v 28.513489 -29.461348 5.957234
v 28.665026 -29.336985 -0.042766
v 28.665026 -29.336985 5.957234
v 28.837914 -29.244576 -0.042766
v 28.837914 -29.244576 5.957234
v 29.025505 -29.187670 -0.042766
v 29.025505 -29.187670 5.957234
v 29.220596 -29.168455 -0.042766
v 29.220596 -29.168455 5.957234
v 29.415688 -29.187670 -0.042766
v 29.415688 -29.187670 5.957234
v 29.603279 -29.244576 -0.042766
v 29.603279 -29.244576 5.957234
v 29.776167 -29.336985 -0.042766
v 29.776167 -29.336985 5.957234
v 29.927704 -29.461348 -0.042766
v 29.927704 -29.461348 5.957234
v 30.052067 -29.612885 -0.042766
v 30.052067 -29.612885 5.957234
v 30.144476 -29.785772 -0.042766
v 30.144476 -29.785772 5.957234
v 30.201382 -29.973364 -0.042766
v 30.201382 -29.973364 5.957234
v 30.220596 -30.168455 -0.042766
v 30.220596 -30.168455 5.957234
v 30.201382 -30.363546 -0.042766
v 30.201382 -30.363546 5.957234
v 30.144476 -30.551138 -0.042766
v 30.144476 -30.551138 5.957234
v 30.052067 -30.724026 -0.042766
v 30.052067 -30.724026 5.957234
v 29.927704 -30.875563 -0.042766
v 29.927704 -30.875563 5.957234
v 29.776167 -30.999926 -0.042766
v 29.776167 -30.999926 5.957234
v 29.603279 -31.092335 -0.042766
v 29.603279 -31.092335 5.957234
v 29.415688 -31.149240 -0.042766
v 29.415688 -31.149240 5.957234
vn -0.0980 -0.9952 -0.0000
vn -0.2903 -0.9569 -0.0000
vn -0.4714 -0.8819 -0.0000
vn -0.6344 -0.7730 -0.0000
vn -0.7730 -0.6344 -0.0000
vn -0.8819 -0.4714 -0.0000
vn -0.9569 -0.2903 -0.0000
vn -0.9952 -0.0980 -0.0000
vn -0.9952 0.0980 -0.0000
vn -0.9569 0.2903 -0.0000
vn -0.8819 0.4714 -0.0000
vn -0.7730 0.6344 -0.0000
vn -0.6344 0.7730 -0.0000
vn -0.4714 0.8819 -0.0000
vn -0.2903 0.9569 -0.0000
vn -0.0980 0.9952 -0.0000
vn 0.0980 0.9952 -0.0000
vn 0.2903 0.9569 -0.0000
vn 0.4714 0.8819 -0.0000
vn 0.6344 0.7730 -0.0000
vn 0.7730 0.6344 -0.0000
vn 0.8819 0.4714 -0.0000
vn 0.9569 0.2903 -0.0000
vn 0.9952 0.0980 -0.0000
vn 0.9952 -0.0980 -0.0000
vn 0.9569 -0.2903 -0.0000
vn 0.8819 -0.4714 -0.0000
vn 0.7730 -0.6344 -0.0000
vn 0.6344 -0.7730 -0.0000
vn 0.4714 -0.8819 -0.0000
vn -0.0000 -0.0000 1.0000
vn 0.2903 -0.9569 -0.0000
vn 0.0980 -0.9952 -0.0000
vn -0.0000 -0.0000 -1.0000
vt 1.000000 0.500000
vt 1.000000 1.000000
vt 0.968750 1.000000
vt 0.968750 0.500000
vt 0.937500 1.000000
vt 0.937500 0.500000
vt 0.906250 1.000000
vt 0.906250 0.500000
vt 0.875000 1.000000
vt 0.875000 0.500000
vt 0.843750 1.000000
vt 0.843750 0.500000
vt 0.812500 1.000000
vt 0.812500 0.500000
vt 0.781250 1.000000
vt 0.781250 0.500000
vt 0.750000 1.000000
vt 0.750000 0.500000
vt 0.718750 1.000000
vt 0.718750 0.500000
vt 0.687500 1.000000
vt 0.687500 0.500000
vt 0.656250 1.000000
vt 0.656250 0.500000
vt 0.625000 1.000000
vt 0.625000 0.500000
vt 0.593750 1.000000
vt 0.593750 0.500000
vt 0.562500 1.000000
vt 0.562500 0.500000
vt 0.531250 1.000000
vt 0.531250 0.500000
vt 0.500000 1.000000
vt 0.500000 0.500000
vt 0.468750 1.000000
vt 0.468750 0.500000
vt 0.437500 1.000000
vt 0.437500 0.500000
vt 0.406250 1.000000
vt 0.406250 0.500000
vt 0.375000 1.000000
vt 0.375000 0.500000
vt 0.343750 1.000000
vt 0.343750 0.500000
vt 0.312500 1.000000
vt 0.312500 0.500000
vt 0.281250 1.000000
vt 0.281250 0.500000
vt 0.250000 1.000000
vt 0.250000 0.500000
vt 0.218750 1.000000
vt 0.218750 0.500000
vt 0.187500 1.000000
vt 0.187500 0.500000
vt 0.156250 1.000000
vt 0.156250 0.500000
vt 0.125000 1.000000
vt 0.125000 0.500000
vt 0.093750 1.000000
vt 0.093750 0.500000
vt 0.062500 1.000000
vt 0.062500 0.500000
vt 0.296822 0.485388
vt 0.250000 0.490000
vt 0.203178 0.485388
vt 0.158156 0.471731
vt 0.116663 0.449553
vt 0.080294 0.419706
vt 0.050447 0.383337
vt 0.028269 0.341844
vt 0.014612 0.296822
vt 0.010000 0.250000
vt 0.014612 0.203178
vt 0.028269 0.158156
vt 0.050447 0.116663
vt 0.080294 0.080294
vt 0.116663 0.050447
vt 0.158156 0.028269
vt 0.203178 0.014612
vt 0.250000 0.010000
vt 0.296822 0.014612
vt 0.341844 0.028269
vt 0.383337 0.050447
vt 0.419706 0.080294
vt 0.449553 0.116663
vt 0.471731 0.158156
vt 0.485388 0.203178
vt 0.490000 0.250000
vt 0.485388 0.296822
vt 0.471731 0.341844
vt 0.449553 0.383337
vt 0.419706 0.419706
vt 0.383337 0.449553
vt 0.341844 0.471731
vt 0.031250 1.000000
vt 0.031250 0.500000
vt 0.000000 1.000000
vt 0.000000 0.500000
vt 0.750000 0.490000
vt 0.796822 0.485388
vt 0.841844 0.471731
vt 0.883337 0.449553
vt 0.919706 0.419706
vt 0.949553 0.383337
vt 0.971731 0.341844
vt 0.985388 0.296822
vt 0.990000 0.250000
vt 0.985388 0.203178
vt 0.971731 0.158156
vt 0.949553 0.116663
vt 0.919706 0.080294
vt 0.883337 0.050447
vt 0.841844 0.028269
vt 0.796822 0.014612
vt 0.750000 0.010000
vt 0.703178 0.014612
vt 0.658156 0.028269
vt 0.616663 0.050447
vt 0.580294 0.080294
vt 0.550447 0.116663
vt 0.528269 0.158156
vt 0.514612 0.203178
vt 0.510000 0.250000
vt 0.514612 0.296822
vt 0.528269 0.341844
vt 0.550447 0.383337
vt 0.580294 0.419706
vt 0.616663 0.449553
vt 0.658156 0.471731
vt 0.703178 0.485388
s 0
usemtl Material.004
f 101/187/59 102/188/59 104/189/59 103/190/59
f 103/190/60 104/189/60 106/191/60 105/192/60
f 105/192/61 106/191/61 108/193/61 107/194/61
f 107/194/62 108/193/62 110/195/62 109/196/62
f 109/196/63 110/195/63 112/197/63 111/198/63
f 111/198/64 112/197/64 114/199/64 113/200/64
f 113/200/65 114/199/65 116/201/65 115/202/65
f 115/202/66 116/201/66 118/203/66 117/204/66
f 117/204/67 118/203/67 120/205/67 119/206/67
f 119/206/68 120/205/68 122/207/68 121/208/68
f 121/208/69 122/207/69 124/209/69 123/210/69
f 123/210/70 124/209/70 126/211/70 125/212/70
f 125/212/71 126/211/71 128/213/71 127/214/71
f 127/214/72 128/213/72 130/215/72 129/216/72
f 129/216/73 130/215/73 132/217/73 131/218/73
f 131/218/74 132/217/74 134/219/74 133/220/74
f 133/220/75 134/219/75 136/221/75 135/222/75
f 135/222/76 136/221/76 138/223/76 137/224/76
f 137/224/77 138/223/77 140/225/77 139/226/77
f 139/226/78 140/225/78 142/227/78 141/228/78
f 141/228/79 142/227/79 144/229/79 143/230/79
f 143/230/80 144/229/80 146/231/80 145/232/80
f 145/232/81 146/231/81 148/233/81 147/234/81
f 147/234/82 148/233/82 150/235/82 149/236/82
f 149/236/83 150/235/83 152/237/83 151/238/83
f 151/238/84 152/237/84 154/239/84 153/240/84
f 153/240/85 154/239/85 156/241/85 155/242/85
f 155/242/86 156/241/86 158/243/86 157/244/86
f 157/244/87 158/243/87 160/245/87 159/246/87
f 159/246/88 160/245/88 162/247/88 161/248/88
f 104/249/89 102/250/89 164/251/89 162/252/89 160/253/89 158/254/89 156/255/89 154/256/89 152/257/89 150/258/89 148/259/89 146/260/89 144/261/89 142/262/89 140/263/89 138/264/89 136/265/89 134/266/89 132/267/89 130/268/89 128/269/89 126/270/89 124/271/89 122/272/89 120/273/89 118/274/89 116/275/89 114/276/89 112/277/89 110/278/89 108/279/89 106/280/89
f 161/248/90 162/247/90 164/281/90 163/282/90
f 163/282/91 164/281/91 102/283/91 101/284/91
f 101/285/92 103/286/92 105/287/92 107/288/92 109/289/92 111/290/92 113/291/92 115/292/92 117/293/92 119/294/92 121/295/92 123/296/92 125/297/92 127/298/92 129/299/92 131/300/92 133/301/92 135/302/92 137/303/92 139/304/92 141/305/92 143/306/92 145/307/92 147/308/92 149/309/92 151/310/92 153/311/92 155/312/92 157/313/92 159/314/92 161/315/92 163/316/92
o Cylinder.002
v 29.594763 28.589529 -0.025398
v 29.594763 28.589529 5.974602
v 29.399672 28.608744 -0.025398
v 29.399672 28.608744 5.974602
v 29.212080 28.665649 -0.025398
v 29.212080 28.665649 5.974602
v 29.039192 28.758059 -0.025398
v 29.039192 28.758059 5.974602
v 28.887655 28.882421 -0.025398
v 28.887655 28.882421 5.974602
v 28.763292 29.033958 -0.025398
v 28.763292 29.033958 5.974602
v 28.670883 29.206846 -0.025398
v 28.670883 29.206846 5.974602
v 28.613977 29.394438 -0.025398
v 28.613977 29.394438 5.974602
v 28.594763 29.589529 -0.025398
v 28.594763 29.589529 5.974602
v 28.613977 29.784620 -0.025398
v 28.613977 29.784620 5.974602
v 28.670883 29.972212 -0.025398
v 28.670883 29.972212 5.974602
v 28.763292 30.145100 -0.025398
v 28.763292 30.145100 5.974602
v 28.887655 30.296637 -0.025398
v 28.887655 30.296637 5.974602
v 29.039192 30.421000 -0.025398
v 29.039192 30.421000 5.974602
v 29.212080 30.513409 -0.025398
v 29.212080 30.513409 5.974602
v 29.399672 30.570314 -0.025398
v 29.399672 30.570314 5.974602
v 29.594763 30.589529 -0.025398
v 29.594763 30.589529 5.974602
v 29.789854 30.570314 -0.025398
v 29.789854 30.570314 5.974602
v 29.977446 30.513409 -0.025398
v 29.977446 30.513409 5.974602
v 30.150333 30.421000 -0.025398
v 30.150333 30.421000 5.974602
v 30.301870 30.296637 -0.025398
v 30.301870 30.296637 5.974602
v 30.426233 30.145100 -0.025398
v 30.426233 30.145100 5.974602
v 30.518642 29.972212 -0.025398
v 30.518642 29.972212 5.974602
v 30.575548 29.784620 -0.025398
v 30.575548 29.784620 5.974602
v 30.594763 29.589529 -0.025398
v 30.594763 29.589529 5.974602
v 30.575548 29.394438 -0.025398
v 30.575548 29.394438 5.974602
v 30.518642 29.206846 -0.025398
v 30.518642 29.206846 5.974602
v 30.426233 29.033958 -0.025398
v 30.426233 29.033958 5.974602
v 30.301870 28.882421 -0.025398
v 30.301870 28.882421 5.974602
v 30.150333 28.758059 -0.025398
v 30.150333 28.758059 5.974602
v 29.977446 28.665649 -0.025398
v 29.977446 28.665649 5.974602
v 29.789854 28.608744 -0.025398
v 29.789854 28.608744 5.974602
vn -0.0980 -0.9952 -0.0000
vn -0.2903 -0.9569 -0.0000
vn -0.4714 -0.8819 -0.0000
vn -0.6344 -0.7730 -0.0000
vn -0.7730 -0.6344 -0.0000
vn -0.8819 -0.4714 -0.0000
vn -0.9569 -0.2903 -0.0000
vn -0.9952 -0.0980 -0.0000
vn -0.9952 0.0980 -0.0000
vn -0.9569 0.2903 -0.0000
vn -0.8819 0.4714 -0.0000
vn -0.7730 0.6344 -0.0000
vn -0.6344 0.7730 -0.0000
vn -0.4714 0.8819 -0.0000
vn -0.2903 0.9569 -0.0000
vn -0.0980 0.9952 -0.0000
vn 0.0980 0.9952 -0.0000
vn 0.2903 0.9569 -0.0000
vn 0.4714 0.8819 -0.0000
vn 0.6344 0.7730 -0.0000
vn 0.7730 0.6344 -0.0000
vn 0.8819 0.4714 -0.0000
vn 0.9569 0.2903 -0.0000
vn 0.9952 0.0980 -0.0000
vn 0.9952 -0.0980 -0.0000
vn 0.9569 -0.2903 -0.0000
vn 0.8819 -0.4714 -0.0000
vn 0.7730 -0.6344 -0.0000
vn 0.6344 -0.7730 -0.0000
vn 0.4714 -0.8819 -0.0000
vn -0.0000 -0.0000 1.0000
vn 0.2903 -0.9569 -0.0000
vn 0.0980 -0.9952 -0.0000
vn -0.0000 -0.0000 -1.0000
vt 1.000000 0.500000
vt 1.000000 1.000000
vt 0.968750 1.000000
vt 0.968750 0.500000
vt 0.937500 1.000000
vt 0.937500 0.500000
vt 0.906250 1.000000
vt 0.906250 0.500000
vt 0.875000 1.000000
vt 0.875000 0.500000
vt 0.843750 1.000000
vt 0.843750 0.500000
vt 0.812500 1.000000
vt 0.812500 0.500000
vt 0.781250 1.000000
vt 0.781250 0.500000
vt 0.750000 1.000000
vt 0.750000 0.500000
vt 0.718750 1.000000
vt 0.718750 0.500000
vt 0.687500 1.000000
vt 0.687500 0.500000
vt 0.656250 1.000000
vt 0.656250 0.500000
vt 0.625000 1.000000
vt 0.625000 0.500000
vt 0.593750 1.000000
vt 0.593750 0.500000
vt 0.562500 1.000000
vt 0.562500 0.500000
vt 0.531250 1.000000
vt 0.531250 0.500000
vt 0.500000 1.000000
vt 0.500000 0.500000
vt 0.468750 1.000000
vt 0.468750 0.500000
vt 0.437500 1.000000
vt 0.437500 0.500000
vt 0.406250 1.000000
vt 0.406250 0.500000
vt 0.375000 1.000000
vt 0.375000 0.500000
vt 0.343750 1.000000
vt 0.343750 0.500000
vt 0.312500 1.000000
vt 0.312500 0.500000
vt 0.281250 1.000000
vt 0.281250 0.500000
vt 0.250000 1.000000
vt 0.250000 0.500000
vt 0.218750 1.000000
vt 0.218750 0.500000
vt 0.187500 1.000000
vt 0.187500 0.500000
vt 0.156250 1.000000
vt 0.156250 0.500000
vt 0.125000 1.000000
vt 0.125000 0.500000
vt 0.093750 1.000000
vt 0.093750 0.500000
vt 0.062500 1.000000
vt 0.062500 0.500000
vt 0.296822 0.485388
vt 0.250000 0.490000
vt 0.203178 0.485388
vt 0.158156 0.471731
vt 0.116663 0.449553
vt 0.080294 0.419706
vt 0.050447 0.383337
vt 0.028269 0.341844
vt 0.014612 0.296822
vt 0.010000 0.250000
vt 0.014612 0.203178
vt 0.028269 0.158156
vt 0.050447 0.116663
vt 0.080294 0.080294
vt 0.116663 0.050447
vt 0.158156 0.028269
vt 0.203178 0.014612
vt 0.250000 0.010000
vt 0.296822 0.014612
vt 0.341844 0.028269
vt 0.383337 0.050447
vt 0.419706 0.080294
vt 0.449553 0.116663
vt 0.471731 0.158156
vt 0.485388 0.203178
vt 0.490000 0.250000
vt 0.485388 0.296822
vt 0.471731 0.341844
vt 0.449553 0.383337
vt 0.419706 0.419706
vt 0.383337 0.449553
vt 0.341844 0.471731
vt 0.031250 1.000000
vt 0.031250 0.500000
vt 0.000000 1.000000
vt 0.000000 0.500000
vt 0.750000 0.490000
vt 0.796822 0.485388
vt 0.841844 0.471731
vt 0.883337 0.449553
vt 0.919706 0.419706
vt 0.949553 0.383337
vt 0.971731 0.341844
vt 0.985388 0.296822
vt 0.990000 0.250000
vt 0.985388 0.203178
vt 0.971731 0.158156
vt 0.949553 0.116663
vt 0.919706 0.080294
vt 0.883337 0.050447
vt 0.841844 0.028269
vt 0.796822 0.014612
vt 0.750000 0.010000
vt 0.703178 0.014612
vt 0.658156 0.028269
vt 0.616663 0.050447
vt 0.580294 0.080294
vt 0.550447 0.116663
vt 0.528269 0.158156
vt 0.514612 0.203178
vt 0.510000 0.250000
vt 0.514612 0.296822
vt 0.528269 0.341844
vt 0.550447 0.383337
vt 0.580294 0.419706
vt 0.616663 0.449553
vt 0.658156 0.471731
vt 0.703178 0.485388
s 0
usemtl Material.004
f 165/317/93 166/318/93 168/319/93 167/320/93
f 167/320/94 168/319/94 170/321/94 169/322/94
f 169/322/95 170/321/95 172/323/95 171/324/95
f 171/324/96 172/323/96 174/325/96 173/326/96
f 173/326/97 174/325/97 176/327/97 175/328/97
f 175/328/98 176/327/98 178/329/98 177/330/98
f 177/330/99 178/329/99 180/331/99 179/332/99
f 179/332/100 180/331/100 182/333/100 181/334/100
f 181/334/101 182/333/101 184/335/101 183/336/101
f 183/336/102 184/335/102 186/337/102 185/338/102
f 185/338/103 186/337/103 188/339/103 187/340/103
f 187/340/104 188/339/104 190/341/104 189/342/104
f 189/342/105 190/341/105 192/343/105 191/344/105
f 191/344/106 192/343/106 194/345/106 193/346/106
f 193/346/107 194/345/107 196/347/107 195/348/107
f 195/348/108 196/347/108 198/349/108 197/350/108
f 197/350/109 198/349/109 200/351/109 199/352/109
f 199/352/110 200/351/110 202/353/110 201/354/110
f 201/354/111 202/353/111 204/355/111 203/356/111
f 203/356/112 204/355/112 206/357/112 205/358/112
f 205/358/113 206/357/113 208/359/113 207/360/113
f 207/360/114 208/359/114 210/361/114 209/362/114
f 209/362/115 210/361/115 212/363/115 211/364/115
f 211/364/116 212/363/116 214/365/116 213/366/116
f 213/366/117 214/365/117 216/367/117 215/368/117
f 215/368/118 216/367/118 218/369/118 217/370/118
f 217/370/119 218/369/119 220/371/119 219/372/119
f 219/372/120 220/371/120 222/373/120 221/374/120
f 221/374/121 222/373/121 224/375/121 223/376/121
f 223/376/122 224/375/122 226/377/122 225/378/122
f 168/379/123 166/380/123 228/381/123 226/382/123 224/383/123 222/384/123 220/385/123 218/386/123 216/387/123 214/388/123 212/389/123 210/390/123 208/391/123 206/392/123 204/393/123 202/394/123 200/395/123 198/396/123 196/397/123 194/398/123 192/399/123 190/400/123 188/401/123 186/402/123 184/403/123 182/404/123 180/405/123 178/406/123 176/407/123 174/408/123 172/409/123 170/410/123
f 225/378/124 226/377/124 228/411/124 227/412/124
f 227/412/125 228/411/125 166/413/125 165/414/125
f 165/415/126 167/416/126 169/417/126 171/418/126 173/419/126 175/420/126 177/421/126 179/422/126 181/423/126 183/424/126 185/425/126 187/426/126 189/427/126 191/428/126 193/429/126 195/430/126 197/431/126 199/432/126 201/433/126 203/434/126 205/435/126 207/436/126 209/437/126 211/438/126 213/439/126 215/440/126 217/441/126 219/442/126 221/443/126 223/444/126 225/445/126 227/446/126
o Cylinder.003
v -30.395992 28.578764 0.001899
v -30.395992 28.578764 6.001899
v -30.591084 28.597979 0.001899
v -30.591084 28.597979 6.001899
v -30.778675 28.654884 0.001899
v -30.778675 28.654884 6.001899
v -30.951563 28.747293 0.001899
v -30.951563 28.747293 6.001899
v -31.103100 28.871656 0.001899
v -31.103100 28.871656 6.001899
v -31.227463 29.023193 0.001899
v -31.227463 29.023193 6.001899
v -31.319872 29.196081 0.001899
v -31.319872 29.196081 6.001899
v -31.376778 29.383673 0.001899
v -31.376778 29.383673 6.001899
v -31.395992 29.578764 0.001899
v -31.395992 29.578764 6.001899
v -31.376778 29.773855 0.001899
v -31.376778 29.773855 6.001899
v -31.319872 29.961447 0.001899
v -31.319872 29.961447 6.001899
v -31.227463 30.134335 0.001899
v -31.227463 30.134335 6.001899
v -31.103100 30.285872 0.001899
v -31.103100 30.285872 6.001899
v -30.951563 30.410234 0.001899
v -30.951563 30.410234 6.001899
v -30.778675 30.502644 0.001899
v -30.778675 30.502644 6.001899
v -30.591084 30.559549 0.001899
v -30.591084 30.559549 6.001899
v -30.395992 30.578764 0.001899
v -30.395992 30.578764 6.001899
v -30.200901 30.559549 0.001899
v -30.200901 30.559549 6.001899
v -30.013309 30.502644 0.001899
v -30.013309 30.502644 6.001899
v -29.840422 30.410234 0.001899
v -29.840422 30.410234 6.001899
v -29.688885 30.285872 0.001899
v -29.688885 30.285872 6.001899
v -29.564522 30.134335 0.001899
v -29.564522 30.134335 6.001899
v -29.472113 29.961447 0.001899
v -29.472113 29.961447 6.001899
v -29.415207 29.773855 0.001899
v -29.415207 29.773855 6.001899
v -29.395992 29.578764 0.001899
v -29.395992 29.578764 6.001899
v -29.415207 29.383673 0.001899
v -29.415207 29.383673 6.001899
v -29.472113 29.196081 0.001899
v -29.472113 29.196081 6.001899
v -29.564522 29.023193 0.001899
v -29.564522 29.023193 6.001899
v -29.688885 28.871656 0.001899
v -29.688885 28.871656 6.001899
v -29.840422 28.747293 0.001899
v -29.840422 28.747293 6.001899
v -30.013309 28.654884 0.001899
v -30.013309 28.654884 6.001899
v -30.200901 28.597979 0.001899
v -30.200901 28.597979 6.001899
vn -0.0980 -0.9952 -0.0000
vn -0.2903 -0.9569 -0.0000
vn -0.4714 -0.8819 -0.0000
vn -0.6344 -0.7730 -0.0000
vn -0.7730 -0.6344 -0.0000
vn -0.8819 -0.4714 -0.0000
vn -0.9569 -0.2903 -0.0000
vn -0.9952 -0.0980 -0.0000
vn -0.9952 0.0980 -0.0000
vn -0.9569 0.2903 -0.0000
vn -0.8819 0.4714 -0.0000
vn -0.7730 0.6344 -0.0000
vn -0.6344 0.7730 -0.0000
vn -0.4714 0.8819 -0.0000
vn -0.2903 0.9569 -0.0000
vn -0.0980 0.9952 -0.0000
vn 0.0980 0.9952 -0.0000
vn 0.2903 0.9569 -0.0000
vn 0.4714 0.8819 -0.0000
vn 0.6344 0.7730 -0.0000
vn 0.7730 0.6344 -0.0000
vn 0.8819 0.4714 -0.0000
vn 0.9569 0.2903 -0.0000
vn 0.9952 0.0980 -0.0000
vn 0.9952 -0.0980 -0.0000
vn 0.9569 -0.2903 -0.0000
vn 0.8819 -0.4714 -0.0000
vn 0.7730 -0.6344 -0.0000
vn 0.6344 -0.7730 -0.0000
vn 0.4714 -0.8819 -0.0000
vn -0.0000 -0.0000 1.0000
vn 0.2903 -0.9569 -0.0000
vn 0.0980 -0.9952 -0.0000
vn -0.0000 -0.0000 -1.0000
vt 1.000000 0.500000
vt 1.000000 1.000000
vt 0.968750 1.000000
vt 0.968750 0.500000
vt 0.937500 1.000000
vt 0.937500 0.500000
vt 0.906250 1.000000
vt 0.906250 0.500000
vt 0.875000 1.000000
vt 0.875000 0.500000
vt 0.843750 1.000000
vt 0.843750 0.500000
vt 0.812500 1.000000
vt 0.812500 0.500000
vt 0.781250 1.000000
vt 0.781250 0.500000
vt 0.750000 1.000000
vt 0.750000 0.500000
vt 0.718750 1.000000
vt 0.718750 0.500000
vt 0.687500 1.000000
vt 0.687500 0.500000
vt 0.656250 1.000000
vt 0.656250 0.500000
vt 0.625000 1.000000
vt 0.625000 0.500000
vt 0.593750 1.000000
vt 0.593750 0.500000
vt 0.562500 1.000000
vt 0.562500 0.500000
vt 0.531250 1.000000
vt 0.531250 0.500000
vt 0.500000 1.000000
vt 0.500000 0.500000
vt 0.468750 1.000000
vt 0.468750 0.500000
vt 0.437500 1.000000
vt 0.437500 0.500000
vt 0.406250 1.000000
vt 0.406250 0.500000
vt 0.375000 1.000000
vt 0.375000 0.500000
vt 0.343750 1.000000
vt 0.343750 0.500000
vt 0.312500 1.000000
vt 0.312500 0.500000
vt 0.281250 1.000000
vt 0.281250 0.500000
vt 0.250000 1.000000
vt 0.250000 0.500000
vt 0.218750 1.000000
vt 0.218750 0.500000
vt 0.187500 1.000000
vt 0.187500 0.500000
vt 0.156250 1.000000
vt 0.156250 0.500000
vt 0.125000 1.000000
vt 0.125000 0.500000
vt 0.093750 1.000000
vt 0.093750 0.500000
vt 0.062500 1.000000
vt 0.062500 0.500000
vt 0.296822 0.485388
vt 0.250000 0.490000
vt 0.203178 0.485388
vt 0.158156 0.471731
vt 0.116663 0.449553
vt 0.080294 0.419706
vt 0.050447 0.383337
vt 0.028269 0.341844
vt 0.014612 0.296822
vt 0.010000 0.250000
vt 0.014612 0.203178
vt 0.028269 0.158156
vt 0.050447 0.116663
vt 0.080294 0.080294
vt 0.116663 0.050447
vt 0.158156 0.028269
vt 0.203178 0.014612
vt 0.250000 0.010000
vt 0.296822 0.014612
vt 0.341844 0.028269
vt 0.383337 0.050447
vt 0.419706 0.080294
vt 0.449553 0.116663
vt 0.471731 0.158156
vt 0.485388 0.203178
vt 0.490000 0.250000
vt 0.485388 0.296822
vt 0.471731 0.341844
vt 0.449553 0.383337
vt 0.419706 0.419706
vt 0.383337 0.449553
vt 0.341844 0.471731
vt 0.031250 1.000000
vt 0.031250 0.500000
vt 0.000000 1.000000
vt 0.000000 0.500000
vt 0.750000 0.490000
vt 0.796822 0.485388
vt 0.841844 0.471731
vt 0.883337 0.449553
vt 0.919706 0.419706
vt 0.949553 0.383337
vt 0.971731 0.341844
vt 0.985388 0.296822
vt 0.990000 0.250000
vt 0.985388 0.203178
vt 0.971731 0.158156
vt 0.949553 0.116663
vt 0.919706 0.080294
vt 0.883337 0.050447
vt 0.841844 0.028269
vt 0.796822 0.014612
vt 0.750000 0.010000
vt 0.703178 0.014612
vt 0.658156 0.028269
vt 0.616663 0.050447
vt 0.580294 0.080294
vt 0.550447 0.116663
vt 0.528269 0.158156
vt 0.514612 0.203178
vt 0.510000 0.250000
vt 0.514612 0.296822
vt 0.528269 0.341844
vt 0.550447 0.383337
vt 0.580294 0.419706
vt 0.616663 0.449553
vt 0.658156 0.471731
vt 0.703178 0.485388
s 0
usemtl Material.004
f 229/447/127 230/448/127 232/449/127 231/450/127
f 231/450/128 232/449/128 234/451/128 233/452/128
f 233/452/129 234/451/129 236/453/129 235/454/129
f 235/454/130 236/453/130 238/455/130 237/456/130
f 237/456/131 238/455/131 240/457/131 239/458/131
f 239/458/132 240/457/132 242/459/132 241/460/132
f 241/460/133 242/459/133 244/461/133 243/462/133
f 243/462/134 244/461/134 246/463/134 245/464/134
f 245/464/135 246/463/135 248/465/135 247/466/135
f 247/466/136 248/465/136 250/467/136 249/468/136
f 249/468/137 250/467/137 252/469/137 251/470/137
f 251/470/138 252/469/138 254/471/138 253/472/138
f 253/472/139 254/471/139 256/473/139 255/474/139
f 255/474/140 256/473/140 258/475/140 257/476/140
f 257/476/141 258/475/141 260/477/141 259/478/141
f 259/478/142 260/477/142 262/479/142 261/480/142
f 261/480/143 262/479/143 264/481/143 263/482/143
f 263/482/144 264/481/144 266/483/144 265/484/144
f 265/484/145 266/483/145 268/485/145 267/486/145
f 267/486/146 268/485/146 270/487/146 269/488/146
f 269/488/147 270/487/147 272/489/147 271/490/147
f 271/490/148 272/489/148 274/491/148 273/492/148
f 273/492/149 274/491/149 276/493/149 275/494/149
f 275/494/150 276/493/150 278/495/150 277/496/150
f 277/496/151 278/495/151 280/497/151 279/498/151
f 279/498/152 280/497/152 282/499/152 281/500/152
f 281/500/153 282/499/153 284/501/153 283/502/153
f 283/502/154 284/501/154 286/503/154 285/504/154
f 285/504/155 286/503/155 288/505/155 287/506/155
f 287/506/156 288/505/156 290/507/156 289/508/156
f 232/509/157 230/510/157 292/511/157 290/512/157 288/513/157 286/514/157 284/515/157 282/516/157 280/517/157 278/518/157 276/519/157 274/520/157 272/521/157 270/522/157 268/523/157 266/524/157 264/525/157 262/526/157 260/527/157 258/528/157 256/529/157 254/530/157 252/531/157 250/532/157 248/533/157 246/534/157 244/535/157 242/536/157 240/537/157 238/538/157 236/539/157 234/540/157
f 289/508/158 290/507/158 292/541/158 291/542/158
f 291/542/159 292/541/159 230/543/159 229/544/159
f 229/545/160 231/546/160 233/547/160 235/548/160 237/549/160 239/550/160 241/551/160 243/552/160 245/553/160 247/554/160 249/555/160 251/556/160 253/557/160 255/558/160 257/559/160 259/560/160 261/561/160 263/562/160 265/563/160 267/564/160 269/565/160 271/566/160 273/567/160 275/568/160 277/569/160 279/570/160 281/571/160 283/572/160 285/573/160 287/574/160 289/575/160 291/576/160
o Cone
v -30.399271 28.580061 6.001977
v -30.594362 28.599276 6.001977
v -30.781954 28.656181 6.001977
v -30.954842 28.748590 6.001977
v -31.106379 28.872953 6.001977
v -31.230742 29.024490 6.001977
v -31.323151 29.197378 6.001977
v -31.380056 29.384970 6.001977
v -31.399271 29.580061 6.001977
v -31.380056 29.775152 6.001977
v -31.323151 29.962744 6.001977
v -31.230742 30.135632 6.001977
v -31.106379 30.287169 6.001977
v -30.954842 30.411531 6.001977
v -30.781954 30.503941 6.001977
v -30.594362 30.560846 6.001977
v -30.399271 30.580061 6.001977
v -30.204180 30.560846 6.001977
v -30.016588 30.503941 6.001977
v -29.843700 30.411531 6.001977
v -29.692163 30.287169 6.001977
v -29.567801 30.135632 6.001977
v -29.475391 29.962744 6.001977
v -29.418486 29.775152 6.001977
v -29.399271 29.580061 6.001977
v -29.418486 29.384970 6.001977
v -29.475391 29.197378 6.001977
v -29.567801 29.024490 6.001977
v -29.692163 28.872953 6.001977
v -29.843700 28.748590 6.001977
v -30.016588 28.656181 6.001977
v -30.204180 28.599276 6.001977
v -30.399271 29.580061 8.001978
vn -0.0878 -0.8910 0.4455
vn -0.2599 -0.8567 0.4455
vn -0.4220 -0.7896 0.4455
vn -0.5680 -0.6921 0.4455
vn -0.6921 -0.5680 0.4455
vn -0.7896 -0.4220 0.4455
vn -0.8567 -0.2599 0.4455
vn -0.8910 -0.0878 0.4455
vn -0.8910 0.0878 0.4455
vn -0.8567 0.2599 0.4455
vn -0.7896 0.4220 0.4455
vn -0.6921 0.5680 0.4455
vn -0.5680 0.6921 0.4455
vn -0.4220 0.7896 0.4455
vn -0.2599 0.8567 0.4455
vn -0.0878 0.8910 0.4455
vn 0.0878 0.8910 0.4455
vn 0.2599 0.8567 0.4455
vn 0.4220 0.7896 0.4455
vn 0.5680 0.6921 0.4455
vn 0.6921 0.5680 0.4455
vn 0.7896 0.4220 0.4455
vn 0.8567 0.2599 0.4455
vn 0.8910 0.0878 0.4455
vn 0.8910 -0.0878 0.4455
vn 0.8567 -0.2599 0.4455
vn 0.7896 -0.4220 0.4455
vn 0.6921 -0.5680 0.4455
vn 0.5680 -0.6921 0.4455
vn 0.4220 -0.7896 0.4455
vn -0.0000 -0.0000 -1.0000
vn 0.2599 -0.8567 0.4455
vn 0.0878 -0.8910 0.4455
vt 0.250000 0.490000
vt 0.250000 0.250000
vt 0.296822 0.485388
vt 0.341844 0.471731
vt 0.383337 0.449553
vt 0.419706 0.419706
vt 0.449553 0.383337
vt 0.471731 0.341844
vt 0.485388 0.296822
vt 0.490000 0.250000
vt 0.485388 0.203178
vt 0.471731 0.158156
vt 0.449553 0.116663
vt 0.419706 0.080294
vt 0.383337 0.050447
vt 0.341844 0.028269
vt 0.296822 0.014612
vt 0.250000 0.010000
vt 0.203178 0.014612
vt 0.158156 0.028269
vt 0.116663 0.050447
vt 0.080294 0.080294
vt 0.050447 0.116663
vt 0.028269 0.158156
vt 0.014612 0.203178
vt 0.010000 0.250000
vt 0.014612 0.296822
vt 0.028269 0.341844
vt 0.050447 0.383337
vt 0.080294 0.419706
vt 0.116663 0.449553
vt 0.158156 0.471731
vt 0.750000 0.490000
vt 0.796822 0.485388
vt 0.841844 0.471731
vt 0.883337 0.449553
vt 0.919706 0.419706
vt 0.949553 0.383337
vt 0.971731 0.341844
vt 0.985388 0.296822
vt 0.990000 0.250000
vt 0.985388 0.203178
vt 0.971731 0.158156
vt 0.949553 0.116663
vt 0.919706 0.080294
vt 0.883337 0.050447
vt 0.841844 0.028269
vt 0.796822 0.014612
vt 0.750000 0.010000
vt 0.703178 0.014612
vt 0.658156 0.028269
vt 0.616663 0.050447
vt 0.580294 0.080294
vt 0.550447 0.116663
vt 0.528269 0.158156
vt 0.514612 0.203178
vt 0.510000 0.250000
vt 0.514612 0.296822
vt 0.528269 0.341844
vt 0.550447 0.383337
vt 0.580294 0.419706
vt 0.616663 0.449553
vt 0.658156 0.471731
vt 0.703178 0.485388
vt 0.203178 0.485388
s 0
usemtl Material.004
f 293/577/161 325/578/161 294/579/161
f 294/579/162 325/578/162 295/580/162
f 295/580/163 325/578/163 296/581/163
f 296/581/164 325/578/164 297/582/164
f 297/582/165 325/578/165 298/583/165
f 298/583/166 325/578/166 299/584/166
f 299/584/167 325/578/167 300/585/167
f 300/585/168 325/578/168 301/586/168
f 301/586/169 325/578/169 302/587/169
f 302/587/170 325/578/170 303/588/170
f 303/588/171 325/578/171 304/589/171
f 304/589/172 325/578/172 305/590/172
f 305/590/173 325/578/173 306/591/173
f 306/591/174 325/578/174 307/592/174
f 307/592/175 325/578/175 308/593/175
f 308/593/176 325/578/176 309/594/176
f 309/594/177 325/578/177 310/595/177
f 310/595/178 325/578/178 311/596/178
f 311/596/179 325/578/179 312/597/179
f 312/597/180 325/578/180 313/598/180
f 313/598/181 325/578/181 314/599/181
f 314/599/182 325/578/182 315/600/182
f 315/600/183 325/578/183 316/601/183
f 316/601/184 325/578/184 317/602/184
f 317/602/185 325/578/185 318/603/185
f 318/603/186 325/578/186 319/604/186
f 319/604/187 325/578/187 320/605/187
f 320/605/188 325/578/188 321/606/188
f 321/606/189 325/578/189 322/607/189
f 322/607/190 325/578/190 323/608/190
f 293/609/191 294/610/191 295/611/191 296/612/191 297/613/191 298/614/191 299/615/191 300/616/191 301/617/191 302/618/191 303/619/191 304/620/191 305/621/191 306/622/191 307/623/191 308/624/191 309/625/191 310/626/191 311/627/191 312/628/191 313/629/191 314/630/191 315/631/191 316/632/191 317/633/191 318/634/191 319/635/191 320/636/191 321/637/191 322/638/191 323/639/191 324/640/191
f 323/608/192 325/578/192 324/641/192
f 324/641/193 325/578/193 293/577/193
o Cone.001
v 29.594213 28.603796 5.973159
v 29.399122 28.623011 5.973159
v 29.211531 28.679916 5.973159
v 29.038643 28.772326 5.973159
v 28.887106 28.896688 5.973159
v 28.762743 29.048225 5.973159
v 28.670334 29.221113 5.973159
v 28.613428 29.408705 5.973159
v 28.594213 29.603796 5.973159
v 28.613428 29.798887 5.973159
v 28.670334 29.986479 5.973159
v 28.762743 30.159367 5.973159
v 28.887106 30.310904 5.973159
v 29.038643 30.435266 5.973159
v 29.211531 30.527676 5.973159
v 29.399122 30.584581 5.973159
v 29.594213 30.603796 5.973159
v 29.789305 30.584581 5.973159
v 29.976896 30.527676 5.973159
v 30.149784 30.435266 5.973159
v 30.301321 30.310904 5.973159
v 30.425684 30.159367 5.973159
v 30.518093 29.986479 5.973159
v 30.574999 29.798887 5.973159
v 30.594213 29.603796 5.973159
v 30.574999 29.408705 5.973159
v 30.518093 29.221113 5.973159
v 30.425684 29.048225 5.973159
v 30.301321 28.896688 5.973159
v 30.149784 28.772326 5.973159
v 29.976896 28.679916 5.973159
v 29.789305 28.623011 5.973159
v 29.594213 29.603796 7.973159
vn -0.0878 -0.8910 0.4455
vn -0.2599 -0.8567 0.4455
vn -0.4220 -0.7896 0.4455
vn -0.5680 -0.6921 0.4455
vn -0.6921 -0.5680 0.4455
vn -0.7896 -0.4220 0.4455
vn -0.8567 -0.2599 0.4455
vn -0.8910 -0.0878 0.4455
vn -0.8910 0.0878 0.4455
vn -0.8567 0.2599 0.4455
vn -0.7896 0.4220 0.4455
vn -0.6921 0.5680 0.4455
vn -0.5680 0.6921 0.4455
vn -0.4220 0.7896 0.4455
vn -0.2599 0.8567 0.4455
vn -0.0878 0.8910 0.4455
vn 0.0878 0.8910 0.4455
vn 0.2599 0.8567 0.4455
vn 0.4220 0.7896 0.4455
vn 0.5680 0.6921 0.4455
vn 0.6921 0.5680 0.4455
vn 0.7896 0.4220 0.4455
vn 0.8567 0.2599 0.4455
vn 0.8910 0.0878 0.4455
vn 0.8910 -0.0878 0.4455
vn 0.8567 -0.2599 0.4455
vn 0.7896 -0.4220 0.4455
vn 0.6921 -0.5680 0.4455
vn 0.5680 -0.6921 0.4455
vn 0.4220 -0.7896 0.4455
vn -0.0000 -0.0000 -1.0000
vn 0.2599 -0.8567 0.4455
vn 0.0878 -0.8910 0.4455
vt 0.250000 0.490000
vt 0.250000 0.250000
vt 0.296822 0.485388
vt 0.341844 0.471731
vt 0.383337 0.449553
vt 0.419706 0.419706
vt 0.449553 0.383337
vt 0.471731 0.341844
vt 0.485388 0.296822
vt 0.490000 0.250000
vt 0.485388 0.203178
vt 0.471731 0.158156
vt 0.449553 0.116663
vt 0.419706 0.080294
vt 0.383337 0.050447
vt 0.341844 0.028269
vt 0.296822 0.014612
vt 0.250000 0.010000
vt 0.203178 0.014612
vt 0.158156 0.028269
vt 0.116663 0.050447
vt 0.080294 0.080294
vt 0.050447 0.116663
vt 0.028269 0.158156
vt 0.014612 0.203178
vt 0.010000 0.250000
vt 0.014612 0.296822
vt 0.028269 0.341844
vt 0.050447 0.383337
vt 0.080294 0.419706
vt 0.116663 0.449553
vt 0.158156 0.471731
vt 0.750000 0.490000
vt 0.796822 0.485388
vt 0.841844 0.471731
vt 0.883337 0.449553
vt 0.919706 0.419706
vt 0.949553 0.383337
vt 0.971731 0.341844
vt 0.985388 0.296822
vt 0.990000 0.250000
vt 0.985388 0.203178
vt 0.971731 0.158156
vt 0.949553 0.116663
vt 0.919706 0.080294
vt 0.883337 0.050447
vt 0.841844 0.028269
vt 0.796822 0.014612
vt 0.750000 0.010000
vt 0.703178 0.014612
vt 0.658156 0.028269
vt 0.616663 0.050447
vt 0.580294 0.080294
vt 0.550447 0.116663
vt 0.528269 0.158156
vt 0.514612 0.203178
vt 0.510000 0.250000
vt 0.514612 0.296822
vt 0.528269 0.341844
vt 0.550447 0.383337
vt 0.580294 0.419706
vt 0.616663 0.449553
vt 0.658156 0.471731
vt 0.703178 0.485388
vt 0.203178 0.485388
s 0
usemtl Material.004
f 326/642/194 358/643/194 327/644/194
f 327/644/195 358/643/195 328/645/195
f 328/645/196 358/643/196 329/646/196
f 329/646/197 358/643/197 330/647/197
f 330/647/198 358/643/198 331/648/198
f 331/648/199 358/643/199 332/649/199
f 332/649/200 358/643/200 333/650/200
f 333/650/201 358/643/201 334/651/201
f 334/651/202 358/643/202 335/652/202
f 335/652/203 358/643/203 336/653/203
f 336/653/204 358/643/204 337/654/204
f 337/654/205 358/643/205 338/655/205
f 338/655/206 358/643/206 339/656/206
f 339/656/207 358/643/207 340/657/207
f 340/657/208 358/643/208 341/658/208
f 341/658/209 358/643/209 342/659/209
f 342/659/210 358/643/210 343/660/210
f 343/660/211 358/643/211 344/661/211
f 344/661/212 358/643/212 345/662/212
f 345/662/213 358/643/213 346/663/213
f 346/663/214 358/643/214 347/664/214
f 347/664/215 358/643/215 348/665/215
f 348/665/216 358/643/216 349/666/216
f 349/666/217 358/643/217 350/667/217
f 350/667/218 358/643/218 351/668/218
f 351/668/219 358/643/219 352/669/219
f 352/669/220 358/643/220 353/670/220
f 353/670/221 358/643/221 354/671/221
f 354/671/222 358/643/222 355/672/222
f 355/672/223 358/643/223 356/673/223
f 326/674/224 327/675/224 328/676/224 329/677/224 330/678/224 331/679/224 332/680/224 333/681/224 334/682/224 335/683/224 336/684/224 337/685/224 338/686/224 339/687/224 340/688/224 341/689/224 342/690/224 343/691/224 344/692/224 345/693/224 346/694/224 347/695/224 348/696/224 349/697/224 350/698/224 351/699/224 352/700/224 353/701/224 354/702/224 355/703/224 356/704/224 357/705/224
f 356/673/225 358/643/225 357/706/225
f 357/706/226 358/643/226 326/642/226
o Cone.002
v 29.224682 -31.171013 5.973159
v 29.029591 -31.151798 5.973159
v 28.841999 -31.094893 5.973159
v 28.669111 -31.002483 5.973159
v 28.517574 -30.878120 5.973159
v 28.393211 -30.726583 5.973159
v 28.300802 -30.553696 5.973159
v 28.243896 -30.366104 5.973159
v 28.224682 -30.171013 5.973159
v 28.243896 -29.975922 5.973159
v 28.300802 -29.788330 5.973159
v 28.393211 -29.615442 5.973159
v 28.517574 -29.463905 5.973159
v 28.669111 -29.339542 5.973159
v 28.841999 -29.247133 5.973159
v 29.029591 -29.190228 5.973159
v 29.224682 -29.171013 5.973159
v 29.419773 -29.190228 5.973159
v 29.607365 -29.247133 5.973159
v 29.780252 -29.339542 5.973159
v 29.931789 -29.463905 5.973159
v 30.056152 -29.615442 5.973159
v 30.148561 -29.788330 5.973159
v 30.205467 -29.975922 5.973159
v 30.224682 -30.171013 5.973159
v 30.205467 -30.366104 5.973159
v 30.148561 -30.553696 5.973159
v 30.056152 -30.726583 5.973159
v 29.931789 -30.878120 5.973159
v 29.780252 -31.002483 5.973159
v 29.607365 -31.094893 5.973159
v 29.419773 -31.151798 5.973159
v 29.224682 -30.171013 7.973159
vn -0.0878 -0.8910 0.4455
vn -0.2599 -0.8567 0.4455
vn -0.4220 -0.7896 0.4455
vn -0.5680 -0.6921 0.4455
vn -0.6921 -0.5680 0.4455
vn -0.7896 -0.4220 0.4455
vn -0.8567 -0.2599 0.4455
vn -0.8910 -0.0878 0.4455
vn -0.8910 0.0878 0.4455
vn -0.8567 0.2599 0.4455
vn -0.7896 0.4220 0.4455
vn -0.6921 0.5680 0.4455
vn -0.5680 0.6921 0.4455
vn -0.4220 0.7896 0.4455
vn -0.2599 0.8567 0.4455
vn -0.0878 0.8910 0.4455
vn 0.0878 0.8910 0.4455
vn 0.2599 0.8567 0.4455
vn 0.4220 0.7896 0.4455
vn 0.5680 0.6921 0.4455
vn 0.6921 0.5680 0.4455
vn 0.7896 0.4220 0.4455
vn 0.8567 0.2599 0.4455
vn 0.8910 0.0878 0.4455
vn 0.8910 -0.0878 0.4455
vn 0.8567 -0.2599 0.4455
vn 0.7896 -0.4220 0.4455
vn 0.6921 -0.5680 0.4455
vn 0.5680 -0.6921 0.4455
vn 0.4220 -0.7896 0.4455
vn -0.0000 -0.0000 -1.0000
vn 0.2599 -0.8567 0.4455
vn 0.0878 -0.8910 0.4455
vt 0.250000 0.490000
vt 0.250000 0.250000
vt 0.296822 0.485388
vt 0.341844 0.471731
vt 0.383337 0.449553
vt 0.419706 0.419706
vt 0.449553 0.383337
vt 0.471731 0.341844
vt 0.485388 0.296822
vt 0.490000 0.250000
vt 0.485388 0.203178
vt 0.471731 0.158156
vt 0.449553 0.116663
vt 0.419706 0.080294
vt 0.383337 0.050447
vt 0.341844 0.028269
vt 0.296822 0.014612
vt 0.250000 0.010000
vt 0.203178 0.014612
vt 0.158156 0.028269
vt 0.116663 0.050447
vt 0.080294 0.080294
vt 0.050447 0.116663
vt 0.028269 0.158156
vt 0.014612 0.203178
vt 0.010000 0.250000
vt 0.014612 0.296822
vt 0.028269 0.341844
vt 0.050447 0.383337
vt 0.080294 0.419706
vt 0.116663 0.449553
vt 0.158156 0.471731
vt 0.750000 0.490000
vt 0.796822 0.485388
vt 0.841844 0.471731
vt 0.883337 0.449553
vt 0.919706 0.419706
vt 0.949553 0.383337
vt 0.971731 0.341844
vt 0.985388 0.296822
vt 0.990000 0.250000
vt 0.985388 0.203178
vt 0.971731 0.158156
vt 0.949553 0.116663
vt 0.919706 0.080294
vt 0.883337 0.050447
vt 0.841844 0.028269
vt 0.796822 0.014612
vt 0.750000 0.010000
vt 0.703178 0.014612
vt 0.658156 0.028269
vt 0.616663 0.050447
vt 0.580294 0.080294
vt 0.550447 0.116663
vt 0.528269 0.158156
vt 0.514612 0.203178
vt 0.510000 0.250000
vt 0.514612 0.296822
vt 0.528269 0.341844
vt 0.550447 0.383337
vt 0.580294 0.419706
vt 0.616663 0.449553
vt 0.658156 0.471731
vt 0.703178 0.485388
vt 0.203178 0.485388
s 0
usemtl Material.004
f 359/707/227 391/708/227 360/709/227
f 360/709/228 391/708/228 361/710/228
f 361/710/229 391/708/229 362/711/229
f 362/711/230 391/708/230 363/712/230
f 363/712/231 391/708/231 364/713/231
f 364/713/232 391/708/232 365/714/232
f 365/714/233 391/708/233 366/715/233
f 366/715/234 391/708/234 367/716/234
f 367/716/235 391/708/235 368/717/235
f 368/717/236 391/708/236 369/718/236
f 369/718/237 391/708/237 370/719/237
f 370/719/238 391/708/238 371/720/238
f 371/720/239 391/708/239 372/721/239
f 372/721/240 391/708/240 373/722/240
f 373/722/241 391/708/241 374/723/241
f 374/723/242 391/708/242 375/724/242
f 375/724/243 391/708/243 376/725/243
f 376/725/244 391/708/244 377/726/244
f 377/726/245 391/708/245 378/727/245
f 378/727/246 391/708/246 379/728/246
f 379/728/247 391/708/247 380/729/247
f 380/729/248 391/708/248 381/730/248
f 381/730/249 391/708/249 382/731/249
f 382/731/250 391/708/250 383/732/250
f 383/732/251 391/708/251 384/733/251
f 384/733/252 391/708/252 385/734/252
f 385/734/253 391/708/253 386/735/253
f 386/735/254 391/708/254 387/736/254
f 387/736/255 391/708/255 388/737/255
f 388/737/256 391/708/256 389/738/256
f 359/739/257 360/740/257 361/741/257 362/742/257 363/743/257 364/744/257 365/745/257 366/746/257 367/747/257 368/748/257 369/749/257 370/750/257 371/751/257 372/752/257 373/753/257 374/754/257 375/755/257 376/756/257 377/757/257 378/758/257 379/759/257 380/760/257 381/761/257 382/762/257 383/763/257 384/764/257 385/765/257 386/766/257 387/767/257 388/768/257 389/769/257 390/770/257
f 389/738/258 391/708/258 390/771/258
f 390/771/259 391/708/259 359/707/259
o Cone.003
v -30.220421 -31.171013 5.973159
v -30.415512 -31.151798 5.973159
v -30.603104 -31.094893 5.973159
v -30.775991 -31.002483 5.973159
v -30.927528 -30.878120 5.973159
v -31.051891 -30.726583 5.973159
v -31.144300 -30.553696 5.973159
v -31.201206 -30.366104 5.973159
v -31.220421 -30.171013 5.973159
v -31.201206 -29.975922 5.973159
v -31.144300 -29.788330 5.973159
v -31.051891 -29.615442 5.973159
v -30.927528 -29.463905 5.973159
v -30.775991 -29.339542 5.973159
v -30.603104 -29.247133 5.973159
v -30.415512 -29.190228 5.973159
v -30.220421 -29.171013 5.973159
v -30.025330 -29.190228 5.973159
v -29.837738 -29.247133 5.973159
v -29.664850 -29.339542 5.973159
v -29.513313 -29.463905 5.973159
v -29.388950 -29.615442 5.973159
v -29.296541 -29.788330 5.973159
v -29.239635 -29.975922 5.973159
v -29.220421 -30.171013 5.973159
v -29.239635 -30.366104 5.973159
v -29.296541 -30.553696 5.973159
v -29.388950 -30.726583 5.973159
v -29.513313 -30.878120 5.973159
v -29.664850 -31.002483 5.973159
v -29.837738 -31.094893 5.973159
v -30.025330 -31.151798 5.973159
v -30.220421 -30.171013 7.973159
vn -0.0878 -0.8910 0.4455
vn -0.2599 -0.8567 0.4455
vn -0.4220 -0.7896 0.4455
vn -0.5680 -0.6921 0.4455
vn -0.6921 -0.5680 0.4455
vn -0.7896 -0.4220 0.4455
vn -0.8567 -0.2599 0.4455
vn -0.8910 -0.0878 0.4455
vn -0.8910 0.0878 0.4455
vn -0.8567 0.2599 0.4455
vn -0.7896 0.4220 0.4455
vn -0.6921 0.5680 0.4455
vn -0.5680 0.6921 0.4455
vn -0.4220 0.7896 0.4455
vn -0.2599 0.8567 0.4455
vn -0.0878 0.8910 0.4455
vn 0.0878 0.8910 0.4455
vn 0.2599 0.8567 0.4455
vn 0.4220 0.7896 0.4455
vn 0.5680 0.6921 0.4455
vn 0.6921 0.5680 0.4455
vn 0.7896 0.4220 0.4455
vn 0.8567 0.2599 0.4455
vn 0.8910 0.0878 0.4455
vn 0.8910 -0.0878 0.4455
vn 0.8567 -0.2599 0.4455
vn 0.7896 -0.4220 0.4455
vn 0.6921 -0.5680 0.4455
vn 0.5680 -0.6921 0.4455
vn 0.4220 -0.7896 0.4455
vn -0.0000 -0.0000 -1.0000
vn 0.2599 -0.8567 0.4455
vn 0.0878 -0.8910 0.4455
vt 0.250000 0.490000
vt 0.250000 0.250000
vt 0.296822 0.485388
vt 0.341844 0.471731
vt 0.383337 0.449553
vt 0.419706 0.419706
vt 0.449553 0.383337
vt 0.471731 0.341844
vt 0.485388 0.296822
vt 0.490000 0.250000
vt 0.485388 0.203178
vt 0.471731 0.158156
vt 0.449553 0.116663
vt 0.419706 0.080294
vt 0.383337 0.050447
vt 0.341844 0.028269
vt 0.296822 0.014612
vt 0.250000 0.010000
vt 0.203178 0.014612
vt 0.158156 0.028269
vt 0.116663 0.050447
vt 0.080294 0.080294
vt 0.050447 0.116663
vt 0.028269 0.158156
vt 0.014612 0.203178
vt 0.010000 0.250000
vt 0.014612 0.296822
vt 0.028269 0.341844
vt 0.050447 0.383337
vt 0.080294 0.419706
vt 0.116663 0.449553
vt 0.158156 0.471731
vt 0.750000 0.490000
vt 0.796822 0.485388
vt 0.841844 0.471731
vt 0.883337 0.449553
vt 0.919706 0.419706
vt 0.949553 0.383337
vt 0.971731 0.341844
vt 0.985388 0.296822
vt 0.990000 0.250000
vt 0.985388 0.203178
vt 0.971731 0.158156
vt 0.949553 0.116663
vt 0.919706 0.080294
vt 0.883337 0.050447
vt 0.841844 0.028269
vt 0.796822 0.014612
vt 0.750000 0.010000
vt 0.703178 0.014612
vt 0.658156 0.028269
vt 0.616663 0.050447
vt 0.580294 0.080294
vt 0.550447 0.116663
vt 0.528269 0.158156
vt 0.514612 0.203178
vt 0.510000 0.250000
vt 0.514612 0.296822
vt 0.528269 0.341844
vt 0.550447 0.383337
vt 0.580294 0.419706
vt 0.616663 0.449553
vt 0.658156 0.471731
vt 0.703178 0.485388
vt 0.203178 0.485388
s 0
usemtl Material.004
f 392/772/260 424/773/260 393/774/260
f 393/774/261 424/773/261 394/775/261
f 394/775/262 424/773/262 395/776/262
f 395/776/263 424/773/263 396/777/263
f 396/777/264 424/773/264 397/778/264
f 397/778/265 424/773/265 398/779/265
f 398/779/266 424/773/266 399/780/266
f 399/780/267 424/773/267 400/781/267
f 400/781/268 424/773/268 401/782/268
f 401/782/269 424/773/269 402/783/269
f 402/783/270 424/773/270 403/784/270
f 403/784/271 424/773/271 404/785/271
f 404/785/272 424/773/272 405/786/272
f 405/786/273 424/773/273 406/787/273
f 406/787/274 424/773/274 407/788/274
f 407/788/275 424/773/275 408/789/275
f 408/789/276 424/773/276 409/790/276
f 409/790/277 424/773/277 410/791/277
f 410/791/278 424/773/278 411/792/278
f 411/792/279 424/773/279 412/793/279
f 412/793/280 424/773/280 413/794/280
f 413/794/281 424/773/281 414/795/281
f 414/795/282 424/773/282 415/796/282
f 415/796/283 424/773/283 416/797/283
f 416/797/284 424/773/284 417/798/284
f 417/798/285 424/773/285 418/799/285
f 418/799/286 424/773/286 419/800/286
f 419/800/287 424/773/287 420/801/287
f 420/801/288 424/773/288 421/802/288
f 421/802/289 424/773/289 422/803/289
f 392/804/290 393/805/290 394/806/290 395/807/290 396/808/290 397/809/290 398/810/290 399/811/290 400/812/290 401/813/290 402/814/290 403/815/290 404/816/290 405/817/290 406/818/290 407/819/290 408/820/290 409/821/290 410/822/290 411/823/290 412/824/290 413/825/290 414/826/290 415/827/290 416/828/290 417/829/290 418/830/290 419/831/290 420/832/290 421/833/290 422/834/290 423/835/290
f 422/803/291 424/773/291 423/836/291
f 423/836/292 424/773/292 392/772/292
